<svg width="24" height="24" viewBox="0 0 24 24" fill="none" xmlns="http://www.w3.org/2000/svg">
<path fill-rule="evenodd" clip-rule="evenodd" d="M9.82388 20.7313C14.6512 21.933 19.5315 18.9906 20.7325 14.1721C21.9305 9.35072 18.9929 4.45565 14.1626 3.2687C9.34703 2.06703 4.46966 5.00937 3.26871 9.82785C2.06777 14.6463 5.00538 19.5267 9.82388 20.7313ZM14.2617 8.57586C15.5117 9.00001 16.4235 9.6274 16.2617 10.8292C16.1382 11.704 15.6617 12.1311 15.0029 12.2813C15.9029 12.7438 16.3529 13.4448 15.9411 14.6731C15.4294 16.2136 14.1676 16.352 12.4794 16.0516L12.0911 17.6922L11.1029 17.4536L11.4911 15.8395C11.2411 15.7776 10.9794 15.7128 10.7029 15.6392L10.3147 17.2651L9.32644 17.0265L9.71468 15.3859C9.57881 15.3465 9.43751 15.3125 9.29408 15.2781C9.20153 15.2558 9.10811 15.2334 9.01468 15.2091L7.72644 14.9087L8.19409 13.7688C8.19409 13.7688 8.93232 13.9573 8.92056 13.9455C9.19409 14.0074 9.32056 13.8306 9.37056 13.7069L9.97056 11.1149C9.98968 11.1208 10.0051 11.1237 10.0206 11.1267C10.036 11.1296 10.0514 11.1326 10.0706 11.1385C10.0458 11.1213 10.0223 11.1152 10.0016 11.1099C9.99035 11.107 9.97991 11.1043 9.97056 11.1002L10.4088 9.24743C10.4235 9.04714 10.347 8.78499 9.94703 8.68484C9.9735 8.67012 9.23526 8.50811 9.23526 8.50811L9.48526 7.45657L10.847 7.78352C10.9529 7.80855 11.0595 7.83065 11.1661 7.85274C11.2728 7.87483 11.3794 7.89692 11.4853 7.92196L11.8735 6.29604L12.8735 6.53462L12.497 8.1252C12.7588 8.17822 13.0235 8.24007 13.2853 8.30193L13.6617 6.71135L14.65 6.94994L14.2617 8.57586ZM11.1854 14.4902C11.98 14.6943 13.7718 15.1545 14.0382 14.0192C14.3063 12.8687 12.6266 12.5065 11.7838 12.3247C11.6837 12.3031 11.5953 12.2841 11.5235 12.2666L11.0117 14.4463C11.062 14.4585 11.1204 14.4735 11.1854 14.4902ZM11.8972 11.3026C12.5599 11.4739 14.0684 11.864 14.3117 10.8292C14.5585 9.79057 13.1507 9.48898 12.4544 9.33982C12.3707 9.32189 12.2972 9.30616 12.2382 9.29162L11.7617 11.2681C11.8014 11.2778 11.8468 11.2896 11.8972 11.3026Z" fill="black"/>
</svg>
