<svg width="24" height="24" viewBox="0 0 24 24" fill="none" xmlns="http://www.w3.org/2000/svg">
<path fill-rule="evenodd" clip-rule="evenodd" d="M6.73016 4.61511L6.73015 4.61512L2.76322 10.7458C2.42812 11.2637 2.41173 11.9258 2.72079 12.4596L6.25609 18.566C6.5495 19.0728 7.09073 19.3849 7.67633 19.3849H19.8588C20.7652 19.3849 21.4999 18.6502 21.4999 17.7438V6.2562C21.4999 5.34985 20.7652 4.61511 19.8588 4.61511H6.73016ZM9.64464 8.97022C9.3242 8.64977 9.3242 8.13023 9.64464 7.80979C9.96509 7.48935 10.4846 7.48935 10.8051 7.80979L13.7122 10.7169L16.6072 7.8219C16.9276 7.50145 17.4472 7.50145 17.7676 7.8219C18.088 8.14234 18.088 8.66188 17.7676 8.98232L14.8726 11.8773L17.7676 14.7723C18.088 15.0928 18.088 15.6123 17.7676 15.9328C17.4472 16.2532 16.9276 16.2532 16.6072 15.9328L13.7122 13.0377L10.8051 15.9449C10.4846 16.2653 9.96509 16.2653 9.64464 15.9449C9.3242 15.6244 9.3242 15.1049 9.64464 14.7844L12.5518 11.8773L9.64464 8.97022Z" fill="black"/>
</svg>
