<svg width="24" height="24" viewBox="0 0 24 24" fill="none" xmlns="http://www.w3.org/2000/svg">
<path fill-rule="evenodd" clip-rule="evenodd" d="M8 3C6.89543 3 6 3.89543 6 5V19C6 20.1046 6.89543 21 8 21H16C17.1046 21 18 20.1046 18 19V5C18 3.89543 17.1046 3 16 3H8ZM9 5C8.44772 5 8 5.44772 8 6V11C8 11.5523 8.44772 12 9 12H15C15.5523 12 16 11.5523 16 11V6C16 5.44772 15.5523 5 15 5H9ZM8 14C8 14.5523 8.44772 15 9 15H10C10.5523 15 11 14.5523 11 14C11 13.4477 10.5523 13 10 13H9C8.44772 13 8 13.4477 8 14ZM14 15C13.4477 15 13 14.5523 13 14C13 13.4477 13.4477 13 14 13H15C15.5523 13 16 13.4477 16 14C16 14.5523 15.5523 15 15 15H14Z" fill="black"/>
</svg>
