<svg width="24" height="24" viewBox="0 0 24 24" fill="none" xmlns="http://www.w3.org/2000/svg">
<g clip-path="url(#clip0)">
<path d="M3.49994 20.5H19.9999V10.5" stroke="black" stroke-linecap="round" stroke-linejoin="round"/>
<path d="M3.49994 13.5V3.5H19.9999" stroke="black" stroke-linecap="round" stroke-linejoin="round"/>
<path d="M18.4999 1.50006L20.5 3.50004L18.4999 5.50006" stroke="black" stroke-linecap="round" stroke-linejoin="round"/>
<path d="M5.49994 22.5L3.49992 20.5L5.49994 18.5" stroke="black" stroke-linecap="round" stroke-linejoin="round"/>
<path fill-rule="evenodd" clip-rule="evenodd" d="M11.9999 18C15.3136 18 17.9999 15.3137 17.9999 12C17.9999 8.68629 15.3136 6 11.9999 6C8.68623 6 5.99994 8.68629 5.99994 12C5.99994 15.3137 8.68623 18 11.9999 18ZM12.2882 15.716V16.5H11.7117V15.716C10.33 15.6246 9.48627 14.8512 9.40541 13.7438H10.3054C10.3687 14.468 10.9734 14.8477 11.7117 14.925V12.2637L11.4304 12.1828C10.3054 11.8594 9.60228 11.2828 9.60228 10.3125C9.60228 9.20859 10.5058 8.44219 11.7117 8.31914V7.5H12.2882V8.30859C13.5609 8.39297 14.4609 9.17344 14.496 10.2H13.6523C13.5749 9.56016 13.0335 9.15938 12.2882 9.08555V11.5852L12.5695 11.6625C13.3148 11.8594 14.5945 12.2953 14.5945 13.6453C14.5945 14.7422 13.7648 15.6141 12.2882 15.716ZM12.2882 12.4289V14.925C13.139 14.8301 13.7507 14.3379 13.7507 13.6312C13.7507 12.9141 13.0757 12.6469 12.3163 12.4359L12.2882 12.4289ZM10.446 10.2703C10.446 10.984 11.1773 11.2793 11.7117 11.4305V9.09609C10.9382 9.19805 10.446 9.66211 10.446 10.2703Z" fill="black"/>
</g>
<defs>
<clipPath id="clip0">
<rect width="24" height="24" fill="white"/>
</clipPath>
</defs>
</svg>
