<svg width="24" height="24" viewBox="0 0 24 24" fill="none" xmlns="http://www.w3.org/2000/svg">
<path d="M14.151 7C14.3737 7 14.4852 7.26929 14.3277 7.42678L10.3622 11.3923C10.2645 11.49 10.2645 11.6483 10.3622 11.7459L12.1967 13.5804C12.2943 13.678 12.4526 13.678 12.5502 13.5804L16.5732 9.55742C16.7307 9.39993 17 9.51147 17 9.7342V17C17 18.1046 16.1046 19 15 19H7C5.89543 19 5 18.1046 5 17V9C5 7.89543 5.89543 7 7 7H14.151Z" fill="black"/>
<path d="M19.5 5C19.5 4.72386 19.2761 4.5 19 4.5L14.5 4.5C14.2239 4.5 14 4.72386 14 5C14 5.27614 14.2239 5.5 14.5 5.5H18.5V9.5C18.5 9.77614 18.7239 10 19 10C19.2761 10 19.5 9.77614 19.5 9.5V5ZM12.3536 12.3536L19.3536 5.35355L18.6464 4.64645L11.6464 11.6464L12.3536 12.3536Z" fill="black"/>
</svg>
