<svg width="24" height="24" viewBox="0 0 24 24" fill="none" xmlns="http://www.w3.org/2000/svg">
<path fill-rule="evenodd" clip-rule="evenodd" d="M12.9024 4.5C13.1676 4.5 13.422 4.60536 13.6095 4.79289L17.2071 8.3905C17.3946 8.57804 17.5 8.83239 17.5 9.09761V17.5C17.5 18.6046 16.6046 19.5 15.5 19.5H8.5C7.39543 19.5 6.5 18.6046 6.5 17.5V6.5C6.5 5.39543 7.39543 4.5 8.5 4.5H12.9024ZM12.5 5.98284V9.3C12.5 9.41046 12.5895 9.5 12.7 9.5H16.0172C16.1953 9.5 16.2846 9.28457 16.1586 9.15858L12.8414 5.84142C12.7154 5.71543 12.5 5.80466 12.5 5.98284Z" fill="black"/>
</svg>
