<svg width="24" height="24" viewBox="0 0 24 24" fill="none" xmlns="http://www.w3.org/2000/svg">
<path d="M4 9.72174V4.8C4 4.35817 4.35817 4 4.8 4H9.72174C10.1636 4 10.5217 4.35817 10.5217 4.8V9.72174C10.5217 10.1636 10.1636 10.5217 9.72174 10.5217H4.8C4.35817 10.5217 4 10.1636 4 9.72174Z" fill="black"/>
<path d="M12.4784 9.72174V4.8C12.4784 4.35817 12.8366 4 13.2784 4H18.2001C18.642 4 19.0001 4.35817 19.0001 4.8V9.72174C19.0001 10.1636 18.642 10.5217 18.2001 10.5217H13.2784C12.8366 10.5217 12.4784 10.1636 12.4784 9.72174Z" fill="black"/>
<path d="M12.4784 18.2V13.2783C12.4784 12.8364 12.8366 12.4783 13.2784 12.4783H18.2001C18.642 12.4783 19.0001 12.8364 19.0001 13.2783V18.2C19.0001 18.6418 18.642 19 18.2001 19H13.2784C12.8366 19 12.4784 18.6418 12.4784 18.2Z" fill="black"/>
<path d="M4 18.2V13.2783C4 12.8364 4.35817 12.4783 4.8 12.4783H9.72174C10.1636 12.4783 10.5217 12.8364 10.5217 13.2783V18.2C10.5217 18.6418 10.1636 19 9.72174 19H4.8C4.35817 19 4 18.6418 4 18.2Z" fill="black"/>
</svg>
