<svg width="24" height="24" viewBox="0 0 24 24" fill="none" xmlns="http://www.w3.org/2000/svg">
<path fill-rule="evenodd" clip-rule="evenodd" d="M12.8272 3.48744C12.2134 2.81663 11.1487 2.84176 10.5673 3.54078L5.00002 10.2339C5.00001 10.2339 5.00001 10.2339 5.00001 10.2339V10.2339C5 10.2339 5 10.2339 5 10.2339V10.234V19.1533C5 19.9817 5.67157 20.6533 6.5 20.6533H8.28943C9.11786 20.6533 9.78943 19.9817 9.78943 19.1533V16.1422C9.78943 15.3137 10.461 14.6422 11.2894 14.6422H12.7105C13.5389 14.6422 14.2105 15.3137 14.2105 16.1422V19.1533C14.2105 19.9817 14.8821 20.6533 15.7105 20.6533H17.5C18.3284 20.6533 19 19.9817 19 19.1533V10.234V10.234C19 10.2339 19 10.2339 19 10.2339L12.8272 3.48744Z" fill="black"/>
<path d="M19 10.2339L18.6311 10.5714L19 10.2339ZM5.00002 10.2339L4.61561 9.91419L5.00002 10.2339ZM5.38442 10.5537L10.9517 3.86052L10.1829 3.22104L4.61561 9.91419L5.38442 10.5537ZM5.5 10.234V10.2339H4.5V10.234H5.5ZM5.5 19.1533V10.234H4.5V19.1533H5.5ZM8.28943 20.1533H6.5V21.1533H8.28943V20.1533ZM10.2894 19.1533V16.1422H9.28943V19.1533H10.2894ZM11.2894 15.1422H12.7105V14.1422H11.2894V15.1422ZM13.7105 16.1422V19.1533H14.7105V16.1422H13.7105ZM17.5 20.1533H15.7105V21.1533H17.5V20.1533ZM18.5 10.234V19.1533H19.5V10.234H18.5ZM12.4583 3.82496L18.6311 10.5714L19.3689 9.89641L13.1961 3.14992L12.4583 3.82496ZM17.5 21.1533C18.6046 21.1533 19.5 20.2578 19.5 19.1533H18.5C18.5 19.7056 18.0523 20.1533 17.5 20.1533V21.1533ZM13.7105 19.1533C13.7105 20.2578 14.6059 21.1533 15.7105 21.1533V20.1533C15.1582 20.1533 14.7105 19.7056 14.7105 19.1533H13.7105ZM12.7105 15.1422C13.2628 15.1422 13.7105 15.5899 13.7105 16.1422H14.7105C14.7105 15.0376 13.815 14.1422 12.7105 14.1422V15.1422ZM10.2894 16.1422C10.2894 15.5899 10.7371 15.1422 11.2894 15.1422V14.1422C10.1849 14.1422 9.28943 15.0376 9.28943 16.1422H10.2894ZM4.5 19.1533C4.5 20.2578 5.39543 21.1533 6.5 21.1533V20.1533C5.94772 20.1533 5.5 19.7056 5.5 19.1533H4.5ZM5.00001 9.73394C4.72386 9.73394 4.5 9.9578 4.5 10.2339H5.5C5.5 10.5101 5.27615 10.7339 5.00001 10.7339V9.73394ZM10.9517 3.86052C11.3393 3.39451 12.0491 3.37775 12.4583 3.82496L13.1961 3.14992C12.3777 2.2555 10.9581 2.28901 10.1829 3.22104L10.9517 3.86052ZM8.28943 21.1533C9.394 21.1533 10.2894 20.2578 10.2894 19.1533H9.28943C9.28943 19.7056 8.84171 20.1533 8.28943 20.1533V21.1533ZM19.5 10.234C19.5 10.1053 19.4507 9.98582 19.3689 9.89641L18.6311 10.5714C18.5493 10.482 18.5 10.3626 18.5 10.234H19.5ZM4.61561 9.91419C4.71061 9.79999 4.85146 9.73394 5.00001 9.73394V10.7339C5.14856 10.7339 5.28942 10.6679 5.38442 10.5537L4.61561 9.91419Z" fill="black"/>
</svg>
