<svg width="24" height="24" viewBox="0 0 24 24" fill="none" xmlns="http://www.w3.org/2000/svg">
<path fill-rule="evenodd" clip-rule="evenodd" d="M12.1408 2.19375C11.8133 1.92577 11.3392 1.93694 11.0246 2.22003L3.28374 9.18682C3.10313 9.34937 3 9.58094 3 9.82393V20.585C3 21.0584 3.38376 21.4422 3.85714 21.4422H8.57143C9.04481 21.4422 9.42857 21.0584 9.42857 20.585V15.4422C9.42857 14.9688 9.81233 14.585 10.2857 14.585H13.7143C14.1877 14.585 14.5714 14.9688 14.5714 15.4422V20.585C14.5714 21.0584 14.9552 21.4422 15.4286 21.4422H20.1429C20.6162 21.4422 21 21.0584 21 20.585V9.84837C21 9.59129 20.8846 9.34778 20.6856 9.18498L12.1408 2.19375Z" fill="black"/>
</svg>
