<svg width="24" height="24" viewBox="0 0 24 24" fill="none" xmlns="http://www.w3.org/2000/svg">
<path fill-rule="evenodd" clip-rule="evenodd" d="M19.9423 9.53846C19.9423 12.5973 17.4627 15.0769 14.4038 15.0769C14.0209 15.0769 13.647 15.0381 13.2859 14.9641L8.83579 19.4142C8.46072 19.7893 7.95201 20 7.42157 20H5.55769C5.00541 20 4.55769 19.5523 4.55769 19V17.1361C4.55769 16.6057 4.76841 16.097 5.14348 15.7219L9.26281 11.6026C9.00645 10.9647 8.86538 10.268 8.86538 9.53846C8.86538 6.47965 11.345 4 14.4038 4C17.4627 4 19.9423 6.47965 19.9423 9.53846ZM15.0192 10.1538C15.699 10.1538 16.25 9.60281 16.25 8.92307C16.25 8.24334 15.699 7.69231 15.0192 7.69231C14.3395 7.69231 13.7885 8.24334 13.7885 8.92307C13.7885 9.60281 14.3395 10.1538 15.0192 10.1538Z" fill="black"/>
</svg>
