<svg width="24" height="24" viewBox="0 0 24 24" fill="none" xmlns="http://www.w3.org/2000/svg">
<path fill-rule="evenodd" clip-rule="evenodd" d="M5.92857 6.85714C4.58731 6.85714 3.5 7.94445 3.5 9.28571V19C3.5 20.3413 4.58731 21.4286 5.92857 21.4286H18.0714C19.4127 21.4286 20.5 20.3413 20.5 19V9.28571C20.5 7.94445 19.4127 6.85714 18.0714 6.85714H5.92857ZM12 16.5714C13.3413 16.5714 14.4286 15.4841 14.4286 14.1429C14.4286 12.8016 13.3413 11.7143 12 11.7143C10.6587 11.7143 9.57143 12.8016 9.57143 14.1429C9.57143 15.4841 10.6587 16.5714 12 16.5714Z" fill="black"/>
<path d="M7.75 7.46428H16.25V4.42857C16.25 3.42262 15.4345 2.60714 14.4286 2.60714H9.57142C8.56548 2.60714 7.75 3.42262 7.75 4.42857V7.46428Z" stroke="black" stroke-width="1.21429"/>
</svg>
