<svg width="24" height="24" viewBox="0 0 24 24" fill="none" xmlns="http://www.w3.org/2000/svg">
<path d="M10.0955 11.1441L12.9239 13.9725L7.26703 19.6294C6.48598 20.4104 5.21965 20.4104 4.4386 19.6294C3.65756 18.8484 3.65756 17.582 4.4386 16.801L10.0955 11.1441Z" fill="black" stroke="black"/>
<path d="M14.5097 12.3868L13.0955 13.801L10.267 10.9725L11.6812 9.55833C12.4623 8.77728 13.7286 8.77728 14.5097 9.55833C15.2907 10.3394 15.2907 11.6057 14.5097 12.3868Z" stroke="black"/>
<path d="M8.19927 3.11033C8.26569 2.86366 8.61566 2.86366 8.68208 3.11033L9.03965 4.43836C9.06281 4.5244 9.13002 4.59161 9.21605 4.61477L10.5441 4.97234C10.7908 5.03876 10.7908 5.38873 10.5441 5.45515L9.21605 5.81272C9.13002 5.83588 9.06281 5.90309 9.03965 5.98913L8.68208 7.31716C8.61566 7.56383 8.26569 7.56383 8.19927 7.31716L7.8417 5.98913C7.81853 5.90309 7.75133 5.83589 7.66529 5.81272L6.33726 5.45515C6.09058 5.38873 6.09058 5.03876 6.33726 4.97234L7.66529 4.61477C7.75133 4.59161 7.81853 4.5244 7.8417 4.43836L8.19927 3.11033Z" fill="black"/>
<path d="M18.1331 2.61033C18.1995 2.36366 18.5495 2.36366 18.6159 2.61033L18.9735 3.93836C18.9967 4.0244 19.0639 4.09161 19.1499 4.11477L20.4779 4.47234C20.7246 4.53876 20.7246 4.88873 20.4779 4.95515L19.1499 5.31272C19.0639 5.33588 18.9967 5.40309 18.9735 5.48913L18.6159 6.81716C18.5495 7.06383 18.1995 7.06383 18.1331 6.81716L17.7755 5.48913C17.7524 5.40309 17.6852 5.33589 17.5991 5.31272L16.2711 4.95515C16.0244 4.88873 16.0244 4.53876 16.2711 4.47234L17.5991 4.11477C17.6852 4.09161 17.7524 4.0244 17.7755 3.93836L18.1331 2.61033Z" fill="black"/>
<path d="M18.9769 12.162C19.0433 11.9153 19.3932 11.9153 19.4597 12.162L19.8172 13.49C19.8404 13.576 19.9076 13.6432 19.9936 13.6664L21.3217 14.024C21.5684 14.0904 21.5684 14.4404 21.3217 14.5068L19.9936 14.8644C19.9076 14.8875 19.8404 14.9547 19.8172 15.0408L19.4597 16.3688C19.3932 16.6155 19.0433 16.6155 18.9769 16.3688L18.6193 15.0408C18.5961 14.9547 18.5289 14.8875 18.4429 14.8644L17.1148 14.5068C16.8682 14.4404 16.8682 14.0904 17.1148 14.024L18.4429 13.6664C18.5289 13.6432 18.5961 13.576 18.6193 13.49L18.9769 12.162Z" fill="black"/>
</svg>
