<svg width="24" height="24" viewBox="0 0 24 24" fill="none" xmlns="http://www.w3.org/2000/svg">
<path fill-rule="evenodd" clip-rule="evenodd" d="M14.2783 4.9766C14.1097 4.67586 13.7905 4.5 13.4458 4.5H10.5884C10.2252 4.5 9.89199 4.69479 9.72662 5.01812C9.65624 5.15574 9.5749 5.31765 9.48583 5.5H14.5618C14.4561 5.29821 14.36 5.12228 14.2783 4.9766ZM7.5 12C7.5 10.2831 8.31885 8.07482 9.01928 6.5H15.0539C15.7369 7.98005 16.5 10.0663 16.5 12V20C16.5 21.1046 15.6046 22 14.5 22H9.5C8.39543 22 7.5 21.1046 7.5 20V12ZM9 12C8.72386 12 8.5 12.2239 8.5 12.5V18.5C8.5 18.7761 8.72386 19 9 19C9.27614 19 9.5 18.7761 9.5 18.5V12.5C9.5 12.2239 9.27614 12 9 12Z" fill="black"/>
<rect x="8.5" y="2.5" width="7" height="3" rx="1" fill="black"/>
</svg>
