<svg width="24" height="24" viewBox="0 0 24 24" fill="none" xmlns="http://www.w3.org/2000/svg">
<path fill-rule="evenodd" clip-rule="evenodd" d="M5.6417 18.3696C5.15834 17.8871 5.15833 17.113 5.64169 16.6304C7.26992 15.0051 9.51761 14 12 14C14.4825 14 16.7301 15.005 18.3583 16.6304C18.8417 17.1129 18.8417 17.8871 18.3584 18.3696C16.7301 19.9949 14.4824 21 12 21C9.51759 21 7.26993 19.995 5.6417 18.3696Z" fill="black"/>
<mask id="path-2-inside-1" fill="white">
<path fill-rule="evenodd" clip-rule="evenodd" d="M12 13C14.2092 13 16 10.7614 16 8H8.00003C8.00003 10.7614 9.79089 13 12 13Z"/>
</mask>
<path d="M16 8H17V7H16V8ZM8.00003 8V7H7.00003V8H8.00003ZM15 8C15 10.4289 13.4602 12 12 12V14C14.9582 14 17 11.0939 17 8H15ZM16 7H8.00003V9H16V7ZM12 12C10.5399 12 9.00003 10.4289 9.00003 8H7.00003C7.00003 11.0939 9.04191 14 12 14V12Z" fill="black" mask="url(#path-2-inside-1)"/>
<path fill-rule="evenodd" clip-rule="evenodd" d="M12 3C14.4853 3 16.5 5.23858 16.5 8H7.50003C7.50003 5.23858 9.51475 3 12 3ZM12 7.5C12.8285 7.5 13.5 6.82843 13.5 6C13.5 5.17157 12.8285 4.5 12 4.5C11.1716 4.5 10.5 5.17157 10.5 6C10.5 6.82843 11.1716 7.5 12 7.5Z" fill="black"/>
<path d="M7.00003 8.5H17" stroke="black" stroke-linecap="round" stroke-linejoin="round"/>
</svg>
