<svg width="24" height="24" viewBox="0 0 24 24" fill="none" xmlns="http://www.w3.org/2000/svg">
<path d="M19 20.5333C19.5522 20.5333 20.0065 20.0834 19.9383 19.5353C19.4471 15.588 16.0803 12.5333 12 12.5333C7.91966 12.5333 4.55283 15.588 4.06161 19.5353C3.99341 20.0834 4.44768 20.5333 4.99996 20.5333H19Z" fill="black"/>
<path d="M12 10.9667C10.5783 10.9667 9.29996 9.59414 9.29996 7.73334H14.7C14.7 9.59414 13.4216 10.9667 12 10.9667Z" stroke="black"/>
<path fill-rule="evenodd" clip-rule="evenodd" d="M15.7333 7.73333C15.7333 7.91441 15.7204 8.09248 15.6955 8.26666H8.30441C8.27949 8.09248 8.2666 7.91441 8.2666 7.73333C8.2666 5.67147 9.93807 4 11.9999 4C14.0618 4 15.7333 5.67147 15.7333 7.73333ZM11.9999 7.00001C12.5522 7.00001 12.9999 6.55229 12.9999 6.00001C12.9999 5.44772 12.5522 5.00001 11.9999 5.00001C11.4477 5.00001 10.9999 5.44772 10.9999 6.00001C10.9999 6.55229 11.4477 7.00001 11.9999 7.00001Z" fill="black"/>
<path d="M8.23328 7.76666H15.7666" stroke="black" stroke-linecap="round" stroke-linejoin="round"/>
</svg>
