<svg width="24" height="24" viewBox="0 0 24 24" fill="none" xmlns="http://www.w3.org/2000/svg">
<path fill-rule="evenodd" clip-rule="evenodd" d="M3 4.72727C3 3.77333 3.77333 3 4.72727 3H20.2727C21.2267 3 22 3.77333 22 4.72727V18.5455C22 19.4994 21.2267 20.2727 20.2727 20.2727H4.72727C3.77333 20.2727 3 19.4994 3 18.5455V4.72727ZM5.59091 5.59091H9.04545V7.31818H5.59091V5.59091ZM9.04545 9.04546H5.59091V10.7727H9.04545V9.04546ZM5.59091 12.5H9.04545V14.2273H5.59091V12.5ZM9.04545 15.9545H5.59091V17.6818H9.04545V15.9545ZM10.7727 5.59091H14.2273V7.31818H10.7727V5.59091ZM14.2273 9.04546H10.7727V10.7727H14.2273V9.04546ZM10.7727 12.5H14.2273V14.2273H10.7727V12.5ZM14.2273 15.9545H10.7727V17.6818H14.2273V15.9545ZM15.9545 5.59091H19.4091V7.31818H15.9545V5.59091ZM19.4091 9.04546H15.9545V10.7727H19.4091V9.04546ZM15.9545 12.5H19.4091V14.2273H15.9545V12.5ZM19.4091 15.9545H15.9545V17.6818H19.4091V15.9545Z" fill="black"/>
</svg>
