<svg width="24" height="24" viewBox="0 0 24 24" fill="none" xmlns="http://www.w3.org/2000/svg">
<path fill-rule="evenodd" clip-rule="evenodd" d="M18.3644 18.3636C16.7357 19.9925 14.4855 21 12.0001 21C7.02953 21 3.00009 16.9706 3.00009 12C3.00009 9.51455 4.00759 7.26441 5.63646 5.63571C5.64186 5.64155 5.6474 5.6473 5.65307 5.65298L8.7972 8.7971C8.70611 9.06016 8.65737 9.34467 8.65737 9.64738C8.65737 11.0001 9.63762 11.8039 11.206 12.2548L11.5981 12.3676V16.0778C10.5689 15.97 9.72585 15.4407 9.63762 14.431H8.3829C8.49563 15.9749 9.67193 17.0532 11.5981 17.1806V18.2736H12.4019V17.1806C13.9334 17.0749 14.9657 16.375 15.394 15.3939L18.3471 18.347C18.3528 18.3527 18.3585 18.3582 18.3644 18.3636ZM19.1561 17.4589C20.3129 15.9448 21.0001 14.0526 21.0001 12C21.0001 7.02944 16.9707 3 12.0001 3C9.94745 3 8.0553 3.68716 6.54114 4.844L9.46876 7.77161C9.99554 7.27555 10.7422 6.95571 11.5981 6.86837V5.72638H12.4019V6.85367C14.1762 6.9713 15.4309 8.05938 15.4799 9.49054H14.3036C14.1958 8.59851 13.441 8.03977 12.4019 7.93684V10.7048L13.4127 11.7155C14.3254 12.032 15.399 12.6275 15.588 13.8909L19.1561 17.4589ZM11.5981 9.90098V7.95155C11.0257 8.027 10.5638 8.24472 10.2564 8.55924L11.5981 9.90098ZM9.86106 9.86096C9.98138 10.4373 10.4804 10.7824 11.0016 11.0015L9.86106 9.86096ZM12.6749 12.6748C12.5979 12.6519 12.5198 12.6296 12.4411 12.6077L12.4019 12.5979V16.0778C13.5231 15.9527 14.3465 15.3328 14.4333 14.4332L12.6749 12.6748Z" fill="black"/>
</svg>
