<svg width="24" height="24" viewBox="0 0 24 24" fill="none" xmlns="http://www.w3.org/2000/svg">
<path fill-rule="evenodd" clip-rule="evenodd" d="M22.2583 9.58793H22.2584V14.6384H22.258C22.25 14.9156 22.1074 15.1892 21.8314 15.345L13.2652 20.1783C12.499 20.6106 11.5627 20.6118 10.7954 20.1814L2.17474 15.346C1.89746 15.1904 1.75431 14.9162 1.74626 14.6384H1.74155V9.58793H1.74597C1.74205 9.3026 1.88059 9.01542 2.16261 8.851L10.7589 3.83942C11.5448 3.38121 12.5168 3.38247 13.3016 3.8427L21.8435 8.85211C22.1243 9.01677 22.2622 9.30327 22.2583 9.58793Z" fill="black"/>
<path d="M3.54269 10.6026L10.7907 14.6921C11.5628 15.1277 12.5069 15.1254 13.2768 14.6861L20.4326 10.6026" stroke="white" stroke-width="0.839567" stroke-linecap="round" stroke-linejoin="round"/>
</svg>
