<svg width="24" height="24" viewBox="0 0 24 24" fill="none" xmlns="http://www.w3.org/2000/svg">
<path fill-rule="evenodd" clip-rule="evenodd" d="M2.90909 7C2.40701 7 2 7.40701 2 7.90909V15.1818C2 15.6839 2.40701 16.0909 2.90909 16.0909H21.0909C21.593 16.0909 22 15.6839 22 15.1818V7.90909C22 7.40701 21.593 7 21.0909 7H2.90909ZM6.54547 13.3636C7.54962 13.3636 8.36365 12.5496 8.36365 11.5455C8.36365 10.5413 7.54962 9.72728 6.54547 9.72728C5.54131 9.72728 4.72728 10.5413 4.72728 11.5455C4.72728 12.5496 5.54131 13.3636 6.54547 13.3636ZM13.8182 11.5455C13.8182 12.5496 13.0042 13.3636 12 13.3636C10.9959 13.3636 10.1818 12.5496 10.1818 11.5455C10.1818 10.5413 10.9959 9.72728 12 9.72728C13.0042 9.72728 13.8182 10.5413 13.8182 11.5455ZM17.4546 13.3636C18.4588 13.3636 19.2728 12.5496 19.2728 11.5455C19.2728 10.5413 18.4588 9.72728 17.4546 9.72728C16.4504 9.72728 15.6364 10.5413 15.6364 11.5455C15.6364 12.5496 16.4504 13.3636 17.4546 13.3636Z" fill="black"/>
</svg>
