<svg width="24" height="24" viewBox="0 0 24 24" fill="none" xmlns="http://www.w3.org/2000/svg">
<path fill-rule="evenodd" clip-rule="evenodd" d="M2.84444 2C2.37807 2 2 2.37807 2 2.84444V21.1556C2 21.6219 2.37807 22 2.84444 22H21.1556C21.6219 22 22 21.6219 22 21.1556V2.84444C22 2.37807 21.6219 2 21.1556 2H2.84444ZM5.84444 5C5.37807 5 5 5.37807 5 5.84444V18.1556C5 18.6219 5.37807 19 5.84444 19H18.1556C18.6219 19 19 18.6219 19 18.1556V5.84444C19 5.37807 18.6219 5 18.1556 5H5.84444Z" fill="black"/>
<path d="M5 21H8V22.5778C8 22.811 7.81096 23 7.57778 23H5.42222C5.18904 23 5 22.811 5 22.5778V21Z" fill="black"/>
<path d="M16 21H19V22.5778C19 22.811 18.811 23 18.5778 23H16.4222C16.189 23 16 22.811 16 22.5778V21Z" fill="black"/>
<path d="M15 12C15 13.6569 13.6569 15 12 15C10.3431 15 9 13.6569 9 12C9 10.3431 10.3431 9 12 9C13.6569 9 15 10.3431 15 12Z" fill="black"/>
<path d="M7.75358 16.2388C7.55832 16.0436 7.55832 15.727 7.75358 15.5317L9.8749 13.4104C10.0702 13.2151 10.3867 13.2151 10.582 13.4104C10.7773 13.6057 10.7773 13.9223 10.582 14.1175L8.46068 16.2388C8.26542 16.4341 7.94884 16.4341 7.75358 16.2388Z" fill="black"/>
<path d="M13.4104 10.582C13.2152 10.3867 13.2152 10.0701 13.4104 9.87488L15.5318 7.75356C15.727 7.55829 16.0436 7.55829 16.2389 7.75356C16.4341 7.94882 16.4341 8.2654 16.2389 8.46066L14.1175 10.582C13.9223 10.7772 13.6057 10.7772 13.4104 10.582Z" fill="black"/>
<path d="M7.75362 7.75355C7.94889 7.55829 8.26547 7.55829 8.46073 7.75355L10.5821 9.87487C10.7773 10.0701 10.7773 10.3867 10.5821 10.582C10.3868 10.7772 10.0702 10.7772 9.87494 10.582L7.75362 8.46066C7.55836 8.2654 7.55836 7.94882 7.75362 7.75355Z" fill="black"/>
<path d="M13.4105 13.4104C13.6057 13.2151 13.9223 13.2151 14.1176 13.4104L16.2389 15.5317C16.4342 15.727 16.4342 16.0436 16.2389 16.2388C16.0436 16.4341 15.7271 16.4341 15.5318 16.2388L13.4105 14.1175C13.2152 13.9223 13.2152 13.6057 13.4105 13.4104Z" fill="black"/>
</svg>
