<svg width="24" height="24" viewBox="0 0 24 24" fill="none" xmlns="http://www.w3.org/2000/svg">
<mask id="path-1-inside-1" fill="white">
<path fill-rule="evenodd" clip-rule="evenodd" d="M6 5C5.44772 5 5 5.44771 5 6V17.9347C5 18.487 5.44772 18.9347 6 18.9347H18C18.5523 18.9347 19 18.487 19 17.9347V6C19 5.44772 18.5523 5 18 5H6ZM7.5 7.00003C7.22386 7.00003 7 7.22389 7 7.50003V16.5C7 16.7762 7.22386 17 7.5 17H16.5C16.7761 17 17 16.7762 17 16.5V7.50003C17 7.22389 16.7761 7.00003 16.5 7.00003H7.5Z"/>
</mask>
<path fill-rule="evenodd" clip-rule="evenodd" d="M6 5C5.44772 5 5 5.44771 5 6V17.9347C5 18.487 5.44772 18.9347 6 18.9347H18C18.5523 18.9347 19 18.487 19 17.9347V6C19 5.44772 18.5523 5 18 5H6ZM7.5 7.00003C7.22386 7.00003 7 7.22389 7 7.50003V16.5C7 16.7762 7.22386 17 7.5 17H16.5C16.7761 17 17 16.7762 17 16.5V7.50003C17 7.22389 16.7761 7.00003 16.5 7.00003H7.5Z" fill="black"/>
<path d="M6 6V6V4C4.89543 4 4 4.89543 4 6H6ZM6 17.9347V6H4V17.9347H6ZM6 17.9347H6H4C4 19.0392 4.89543 19.9347 6 19.9347V17.9347ZM18 17.9347H6V19.9347H18V17.9347ZM18 17.9347V17.9347V19.9347C19.1046 19.9347 20 19.0392 20 17.9347H18ZM18 6V17.9347H20V6H18ZM18 6H20C20 4.89543 19.1046 4 18 4V6ZM6 6H18V4H6V6ZM8 7.50003C8 7.77617 7.77614 8.00003 7.5 8.00003V6.00003C6.67157 6.00003 6 6.6716 6 7.50003H8ZM8 16.5V7.50003H6V16.5H8ZM7.5 16C7.77614 16 8 16.2239 8 16.5H6C6 17.3285 6.67157 18 7.5 18V16ZM16.5 16H7.5V18H16.5V16ZM16 16.5C16 16.2239 16.2239 16 16.5 16V18C17.3284 18 18 17.3285 18 16.5H16ZM16 7.50003V16.5H18V7.50003H16ZM16.5 8.00003C16.2239 8.00003 16 7.77617 16 7.50003H18C18 6.6716 17.3284 6.00003 16.5 6.00003V8.00003ZM7.5 8.00003H16.5V6.00003H7.5V8.00003Z" fill="black" mask="url(#path-1-inside-1)"/>
<mask id="path-3-inside-2" fill="white">
<path d="M7 19H9V19.5778C9 19.811 8.81096 20 8.57778 20H7.42222C7.18904 20 7 19.811 7 19.5778V19Z"/>
</mask>
<path d="M7 19H9V19.5778C9 19.811 8.81096 20 8.57778 20H7.42222C7.18904 20 7 19.811 7 19.5778V19Z" stroke="black" mask="url(#path-3-inside-2)"/>
<mask id="path-4-inside-3" fill="white">
<path d="M15 19H17V19.5778C17 19.811 16.811 20 16.5778 20H15.4222C15.189 20 15 19.811 15 19.5778V19Z"/>
</mask>
<path d="M15 19H17V19.5778C17 19.811 16.811 20 16.5778 20H15.4222C15.189 20 15 19.811 15 19.5778V19Z" stroke="black" mask="url(#path-4-inside-3)"/>
<circle cx="12" cy="12" r="2" fill="black"/>
<path d="M9 9L15.0005 15.0005" stroke="black" stroke-linecap="round" stroke-linejoin="round"/>
<path d="M9 15L15 9" stroke="black" stroke-linecap="round" stroke-linejoin="round"/>
</svg>
