<svg width="24" height="24" viewBox="0 0 24 24" fill="none" xmlns="http://www.w3.org/2000/svg">
<path d="M12 21.0017C16.9715 21.0017 21.0017 16.9715 21.0017 12C21.0017 7.0285 16.9715 2.99829 12 2.99829C7.0285 2.99829 2.99829 7.0285 2.99829 12C2.99829 16.9715 7.0285 21.0017 12 21.0017Z" fill="black"/>
<path d="M14.5009 5.0029L13.3587 4.69965L12.8405 6.65134L13.9827 6.95459L14.5009 5.0029Z" fill="white"/>
<path d="M11.1582 17.592L10.016 17.2887L9.49781 19.2404L10.6399 19.5436L11.1582 17.592Z" fill="white"/>
<path d="M16.7239 10.7361L17.027 9.59439L8.88619 7.43285L8.58304 8.57458L16.7239 10.7361Z" fill="white"/>
<path d="M15.9234 13.7511L16.2266 12.6094L8.08575 10.4478L7.7826 11.5896L15.9234 13.7511Z" fill="white"/>
<path d="M15.146 16.6813L15.4492 15.5396L7.30837 13.378L7.00522 14.5197L15.146 16.6813Z" fill="white"/>
</svg>
