<svg width="24" height="24" viewBox="0 0 24 24" fill="none" xmlns="http://www.w3.org/2000/svg">
<path fill-rule="evenodd" clip-rule="evenodd" d="M15.8182 4.5H10.5637L6 8.68339V17.5C6 18.6046 6.97683 19.5 8.18182 19.5H15.8182C17.0232 19.5 18 18.6046 18 17.5V6.5C18 5.39543 17.0232 4.5 15.8182 4.5ZM15.75 6C15.3358 6 15 6.33579 15 6.75V9.25C15 9.66421 15.3358 10 15.75 10C16.1642 10 16.5 9.66421 16.5 9.25V6.75C16.5 6.33579 16.1642 6 15.75 6ZM13 6.75C13 6.33579 13.3358 6 13.75 6C14.1642 6 14.5 6.33579 14.5 6.75V9.25C14.5 9.66421 14.1642 10 13.75 10C13.3358 10 13 9.66421 13 9.25V6.75ZM11.75 6C11.3358 6 11 6.33579 11 6.75V9.25C11 9.66421 11.3358 10 11.75 10C12.1642 10 12.5 9.66421 12.5 9.25V6.75C12.5 6.33579 12.1642 6 11.75 6Z" fill="black"/>
</svg>
