<svg width="24" height="24" viewBox="0 0 24 24" fill="none" xmlns="http://www.w3.org/2000/svg">
<path fill-rule="evenodd" clip-rule="evenodd" d="M20.75 12.5C20.75 14.9853 18.7353 17 16.25 17C15.9388 17 15.6351 16.9684 15.3417 16.9083L11.8358 20.4142C11.4607 20.7893 10.952 21 10.4216 21H9.25C8.69772 21 8.25 20.5523 8.25 20V18.8284C8.25 18.298 8.46071 17.7893 8.83579 17.4142L12.0729 14.1771C11.8646 13.6588 11.75 13.0928 11.75 12.5C11.75 10.0147 13.7647 8 16.25 8C18.7353 8 20.75 10.0147 20.75 12.5ZM16.75 13C17.3023 13 17.75 12.5523 17.75 12C17.75 11.4477 17.3023 11 16.75 11C16.1977 11 15.75 11.4477 15.75 12C15.75 12.5523 16.1977 13 16.75 13Z" fill="black"/>
<path fill-rule="evenodd" clip-rule="evenodd" d="M15.6452 6.5301C12.787 6.81619 10.5199 9.10817 10.2724 11.9776L6.83579 15.4142C6.46071 15.7893 5.95201 16 5.42157 16H4.25C3.69772 16 3.25 15.5523 3.25 15V13.8284C3.25 13.298 3.46071 12.7893 3.83579 12.4142L7.07291 9.17709C6.86462 8.6588 6.75 8.09279 6.75 7.5C6.75 5.01472 8.76472 3 11.25 3C13.4023 3 15.2017 4.51101 15.6452 6.5301ZM12.75 7C12.75 7.55228 12.3023 8 11.75 8C11.1977 8 10.75 7.55228 10.75 7C10.75 6.44772 11.1977 6 11.75 6C12.3023 6 12.75 6.44772 12.75 7Z" fill="black"/>
</svg>
