<svg width="24" height="24" viewBox="0 0 24 24" fill="none" xmlns="http://www.w3.org/2000/svg">
<rect x="12.5" y="4.5" width="10" height="15" rx="1.5" stroke="black"/>
<path fill-rule="evenodd" clip-rule="evenodd" d="M3.99999 4C2.89542 4 1.99999 4.89543 1.99999 6V18C1.99999 19.1046 2.89542 20 3.99999 20H17C18.1046 20 19 19.1046 19 18V6C19 4.89543 18.1046 4 17 4H3.99999ZM6.59998 13.6C7.59409 13.6 8.39998 12.7941 8.39998 11.8C8.39998 10.8059 7.59409 10 6.59998 10C5.60587 10 4.79998 10.8059 4.79998 11.8C4.79998 12.7941 5.60587 13.6 6.59998 13.6Z" fill="black"/>
</svg>
