<svg width="24" height="24" viewBox="0 0 24 24" fill="none" xmlns="http://www.w3.org/2000/svg">
<path d="M17.3554 8.1838C17.1498 6.33217 15.5575 5.73579 13.5364 5.56809L13.5108 3L11.949 3.01164L11.9789 5.52267C11.5657 5.52775 11.1481 5.53393 10.7382 5.55218L10.7082 3.04115L9.12885 3.05717L9.15442 5.62526C8.82012 5.62932 8.48582 5.65204 8.15153 5.6561L6 5.67485L6.01816 7.33533C6.01816 7.33533 7.17887 7.30245 7.14489 7.33424C7.7784 7.33486 7.98983 7.69723 8.04235 8.00128L8.07768 10.9261C8.12152 10.9338 8.17414 10.9207 8.24099 10.946C8.17961 10.9426 8.14453 10.9514 8.08316 10.948L8.15213 15.035C8.12358 15.238 8.00073 15.5485 7.56999 15.558C7.5919 15.5711 6.42133 15.5645 6.42133 15.5645L6.14788 17.4376L8.17995 17.4067C8.55808 17.4103 8.93184 17.3964 9.28914 17.41L9.32018 20L10.882 19.9884L10.8565 17.4203C11.296 17.4273 11.7103 17.4266 12.106 17.4259L12.1271 19.9764L13.689 19.9648L13.658 17.3747C16.2863 17.1951 18.1158 16.5198 18.3061 14.0331C18.4634 12.0491 17.5321 11.1713 16.0185 10.8164C16.9448 10.3476 17.4964 9.53382 17.3554 8.1838ZM15.2263 13.7656C15.2532 15.7038 11.9246 15.5216 10.8735 15.5272L10.8262 12.0877C11.896 12.0821 15.1951 11.7353 15.2263 13.7656ZM14.4484 8.90857C14.4721 10.6656 11.6991 10.5082 10.8102 10.5106L10.7859 7.38719C11.6562 7.38475 14.4281 7.07139 14.4484 8.90857Z" fill="black"/>
</svg>
