<svg width="24" height="24" viewBox="0 0 24 24" fill="none" xmlns="http://www.w3.org/2000/svg">
<path d="M20.2199 7.74041L20.4855 8.16406C20.6314 8.07262 20.7199 7.91257 20.7199 7.74041C20.7199 7.56825 20.6314 7.4082 20.4855 7.31677L20.2199 7.74041ZM11.86 2.5L12.1256 2.07635C11.9632 1.97455 11.7569 1.97455 11.5945 2.07635L11.86 2.5ZM20.2115 7.74568L19.946 7.32203C19.7571 7.44044 19.6694 7.66959 19.731 7.88384C19.7926 8.09809 19.9886 8.24568 20.2115 8.24568V7.74568ZM20.2198 7.74568H20.7198C20.7198 7.46954 20.496 7.24568 20.2198 7.24568V7.74568ZM20.2198 16.6058V17.1058C20.496 17.1058 20.7198 16.8819 20.7198 16.6058H20.2198ZM20.2172 16.6058V16.1058C19.9942 16.1058 19.7982 16.2534 19.7366 16.4676C19.675 16.6819 19.7627 16.911 19.9516 17.0294L20.2172 16.6058ZM20.2198 16.6074L20.4854 17.0311C20.6313 16.9397 20.7198 16.7796 20.7198 16.6074C20.7198 16.4353 20.6312 16.2752 20.4854 16.1838L20.2198 16.6074ZM11.8599 21.8479L11.5944 22.2715C11.7568 22.3733 11.9631 22.3733 12.1255 22.2715L11.8599 21.8479ZM3.5 16.6074L3.23444 16.1838C3.08857 16.2752 3 16.4353 3 16.6074C3 16.7796 3.08857 16.9397 3.23444 17.0311L3.5 16.6074ZM3.50265 16.6058L3.76822 17.0294C3.95711 16.911 4.04479 16.6819 3.98319 16.4676C3.92159 16.2534 3.72559 16.1058 3.50265 16.1058V16.6058ZM3.5 16.6058H3C3 16.8819 3.22386 17.1058 3.5 17.1058V16.6058ZM3.5 7.74568V7.24568C3.22386 7.24568 3 7.46954 3 7.74568H3.5ZM3.50851 7.74568V8.24568C3.73144 8.24568 3.92744 8.09809 3.98904 7.88384C4.05064 7.66958 3.96296 7.44043 3.77407 7.32203L3.50851 7.74568ZM3.50011 7.74041L3.23454 7.31677C3.08867 7.40821 3.00011 7.56826 3.00011 7.74041C3.00011 7.91257 3.08868 8.07262 3.23455 8.16406L3.50011 7.74041ZM20.4855 7.31677L12.1256 2.07635L11.5945 2.92365L19.9544 8.16406L20.4855 7.31677ZM20.4771 8.16932L20.4855 8.16406L19.9544 7.31677L19.946 7.32203L20.4771 8.16932ZM20.2115 8.24568H20.2198V7.24568H20.2115V8.24568ZM19.7198 7.74568V16.6058H20.7198V7.74568H19.7198ZM20.2198 16.1058H20.2172V17.1058H20.2198V16.1058ZM20.4854 16.1838L20.4827 16.1821L19.9516 17.0294L19.9543 17.0311L20.4854 16.1838ZM12.1255 22.2715L20.4854 17.0311L19.9543 16.1838L11.5944 21.4242L12.1255 22.2715ZM3.23444 17.0311L11.5944 22.2715L12.1255 21.4242L3.76556 16.1838L3.23444 17.0311ZM3.23709 16.1821L3.23444 16.1838L3.76556 17.0311L3.76822 17.0294L3.23709 16.1821ZM3.50265 16.1058H3.5V17.1058H3.50265V16.1058ZM4 16.6058V7.74568H3V16.6058H4ZM3.5 8.24568H3.50851V7.24568H3.5V8.24568ZM3.23455 8.16406L3.24294 8.16933L3.77407 7.32203L3.76567 7.31677L3.23455 8.16406ZM11.5945 2.07635L3.23454 7.31677L3.76567 8.16406L12.1256 2.92365L11.5945 2.07635Z" fill="black"/>
<path d="M11.8575 2.61237L19.7809 7.57914L11.8575 12.5459L3.93411 7.57914L11.8575 2.61237Z" stroke="black"/>
<line x1="11.9333" y1="12.8422" x2="11.9333" y2="21.5003" stroke="black" stroke-linecap="round" stroke-linejoin="round"/>
</svg>
