<svg width="24" height="24" viewBox="0 0 24 24" fill="none" xmlns="http://www.w3.org/2000/svg">
<path d="M13.7938 9.41012L14.0118 9.88341L14.4757 9.64595C14.9699 9.39295 15.53 9.25 16.125 9.25C18.127 9.25 19.75 10.873 19.75 12.875V13.375H20.25C21.4926 13.375 22.5 14.3824 22.5 15.625C22.5 16.8676 21.4926 17.875 20.25 17.875H5.125C3.12297 17.875 1.5 16.252 1.5 14.25C1.5 12.6308 2.56193 11.2584 4.02858 10.7936L4.30407 10.7063L4.36595 10.424C4.85791 8.17963 6.8584 6.5 9.25 6.5C11.2645 6.5 13.0018 7.69137 13.7938 9.41012Z" stroke="black"/>
</svg>
