<svg width="24" height="24" viewBox="0 0 24 24" fill="none" xmlns="http://www.w3.org/2000/svg">
<path d="M18.4968 18.55H5.50327C5.54487 17.6058 5.97952 16.9481 6.57734 16.4417C7.22691 15.8914 8.05051 15.5354 8.7732 15.2264L8.77321 15.2264L8.78432 15.2217C9.07097 15.0991 9.41882 14.9504 9.69605 14.8014C9.83474 14.7269 9.97975 14.6398 10.0965 14.5424C10.155 14.4936 10.2224 14.429 10.2785 14.3479C10.3337 14.2682 10.4 14.14 10.4 13.975V12.4059V12.1565L10.2007 12.0065C9.45798 11.4474 9 10.537 9 9.6V7.5C9 5.84624 10.3462 4.5 12 4.5C13.6538 4.5 15 5.84624 15 7.5V9.6C15 10.5373 14.542 11.4474 13.7993 12.0065L13.6 12.1565V12.4059V13.975C13.6 14.1355 13.6616 14.2627 13.7174 14.3462C13.7734 14.43 13.8414 14.4967 13.9011 14.5476C14.02 14.6487 14.1676 14.7378 14.3083 14.8133C14.5896 14.9643 14.9422 15.1128 15.2317 15.2346L15.2421 15.239C15.2422 15.239 15.2422 15.239 15.2423 15.2391C15.2423 15.2391 15.2423 15.2391 15.2423 15.2391C15.9625 15.5426 16.7816 15.8917 17.4276 16.4378C18.0216 16.94 18.4556 17.5972 18.4968 18.55Z" stroke="black"/>
</svg>
