<svg width="24" height="24" viewBox="0 0 24 24" fill="none" xmlns="http://www.w3.org/2000/svg">
<g clip-path="url(#clip0)">
<path d="M3.49994 20.5H19.9999V10.5" stroke="black" stroke-linecap="round" stroke-linejoin="round"/>
<path d="M3.49994 13.5V3.5H19.9999" stroke="black" stroke-linecap="round" stroke-linejoin="round"/>
<path d="M18.4999 1.50006L20.5 3.50004L18.4999 5.50006" stroke="black" stroke-linecap="round" stroke-linejoin="round"/>
<path d="M5.49994 22.5L3.49992 20.5L5.49994 18.5" stroke="black" stroke-linecap="round" stroke-linejoin="round"/>
<path d="M11.6476 17.5H12.3523V16.5418C14.157 16.4172 15.171 15.3516 15.171 14.011C15.171 12.361 13.607 11.8282 12.696 11.5875L12.3523 11.493V8.43792C13.2632 8.52816 13.9249 9.018 14.0195 9.80003H15.0507C15.0077 8.54534 13.9077 7.59144 12.3523 7.48831V6.50003H11.6476V7.5012C10.1737 7.65159 9.06945 8.58831 9.06945 9.93753C9.06945 11.1235 9.92883 11.8282 11.3038 12.2235L11.6476 12.3223V15.575C10.7452 15.4805 10.0062 15.0164 9.92883 14.1313H8.82883C8.92766 15.4848 9.9589 16.4301 11.6476 16.5418V17.5ZM12.3523 15.575V12.5242L12.3866 12.5328C13.3148 12.7907 14.1398 13.1172 14.1398 13.9938C14.1398 14.8575 13.3921 15.459 12.3523 15.575ZM11.6476 11.3039C10.9945 11.1192 10.1007 10.7582 10.1007 9.88597C10.1007 9.14261 10.7023 8.57542 11.6476 8.45081V11.3039Z" fill="black"/>
</g>
<defs>
<clipPath id="clip0">
<rect width="24" height="24" fill="white"/>
</clipPath>
</defs>
</svg>
