<svg width="24" height="24" viewBox="0 0 24 24" fill="none" xmlns="http://www.w3.org/2000/svg">
<path fill-rule="evenodd" clip-rule="evenodd" d="M16 12.7426V17C16 17.5523 15.5523 18 15 18H7C6.44772 18 6 17.5523 6 17V9C6 8.44772 6.44772 8 7 8H12.2573L13.2573 7H7C5.89543 7 5 7.89543 5 9V17C5 18.1046 5.89543 19 7 19H15C16.1046 19 17 18.1046 17 17V11.7426L16 12.7426Z" fill="black"/>
<path d="M19.5 5C19.5 4.72386 19.2761 4.5 19 4.5L14.5 4.5C14.2239 4.5 14 4.72386 14 5C14 5.27614 14.2239 5.5 14.5 5.5H18.5V9.5C18.5 9.77614 18.7239 10 19 10C19.2761 10 19.5 9.77614 19.5 9.5V5ZM12.3536 12.3536L19.3536 5.35355L18.6464 4.64645L11.6464 11.6464L12.3536 12.3536Z" fill="black"/>
</svg>
