<svg width="24" height="24" viewBox="0 0 24 24" fill="none" xmlns="http://www.w3.org/2000/svg">
<path d="M19.7085 10.6856L19.6278 11.179L19.628 11.179L19.7085 10.6856ZM17.6527 10.3496L17.1727 10.4896L17.261 10.7922L17.572 10.843L17.6527 10.3496ZM20 11.0289L19.5 11.0279V11.0289H20ZM19.7123 13.2845L19.626 12.792L19.6259 12.7921L19.7123 13.2845ZM17.6537 13.6459L17.5673 13.1534L17.2601 13.2074L17.1734 13.507L17.6537 13.6459ZM17.1643 14.8313L16.726 14.5906L16.5741 14.8674L16.7586 15.1235L17.1643 14.8313ZM18.3811 16.5207L17.9754 16.8129L17.9755 16.8132L18.3811 16.5207ZM18.3449 16.9701L18.6986 17.3235L18.6989 17.3231L18.3449 16.9701ZM16.9924 18.3235L17.3455 18.6776L17.3461 18.6769L16.9924 18.3235ZM16.5465 18.3621L16.8348 17.9536L16.8336 17.9528L16.5465 18.3621ZM14.8402 17.1652L15.1274 16.7559L14.8709 16.576L14.5972 16.7283L14.8402 17.1652ZM13.6471 17.6643L13.5059 17.1847L13.2089 17.2721L13.1548 17.577L13.6471 17.6643ZM13.2836 19.713L12.7913 19.6257L12.7912 19.6263L13.2836 19.713ZM10.6855 19.7099L11.1788 19.6289L11.1787 19.6278L10.6855 19.7099ZM10.3459 17.6713L10.8392 17.5892L10.7874 17.2784L10.4848 17.191L10.3459 17.6713ZM9.14758 17.176L9.38848 16.7379L9.11571 16.5879L8.86075 16.7665L9.14758 17.176ZM7.45352 18.3624L7.16669 17.9529L7.16604 17.9533L7.45352 18.3624ZM7.00791 18.3235L6.65424 18.6769L6.65438 18.677L7.00791 18.3235ZM5.65545 16.9701L5.30089 17.3226L5.30177 17.3235L5.65545 16.9701ZM5.61858 16.5217L6.02522 16.8127L6.0253 16.8126L5.61858 16.5217ZM6.81555 14.8477L7.22228 15.1385L7.40577 14.8818L7.25313 14.6057L6.81555 14.8477ZM6.31533 13.6442L6.79553 13.5049L6.70887 13.2062L6.40263 13.1519L6.31533 13.6442ZM4.28698 13.2845L4.19927 13.7768L4.19969 13.7768L4.28698 13.2845ZM4.29081 10.6859L4.37267 11.1792L4.37293 11.1791L4.29081 10.6859ZM6.31916 10.3482L6.40128 10.8414L6.71138 10.7897L6.79923 10.4879L6.31916 10.3482ZM6.81938 9.1447L7.25701 9.38651L7.40775 9.1137L7.22918 8.85824L6.81938 9.1447ZM5.63701 7.45322L6.04682 7.16676L6.04608 7.16571L5.63701 7.45322ZM5.67597 7.008L6.02951 7.36157L6.02951 7.36157L5.67597 7.008ZM7.02809 5.656L6.67557 5.30141L6.67455 5.30243L7.02809 5.656ZM7.47648 5.61913L7.76708 5.21225L7.76708 5.21225L7.47648 5.61913ZM9.15662 6.81913L8.86602 7.22601L9.12141 7.40842L9.39671 7.25772L9.15662 6.81913ZM10.3522 6.328L10.4903 6.80854L10.7946 6.72106L10.8457 6.40859L10.3522 6.328ZM10.6848 4.29183L11.1782 4.37242L11.1782 4.37238L10.6848 4.29183ZM13.2839 4.288L13.7764 4.20173L13.7764 4.20145L13.2839 4.288ZM13.6426 6.3353L13.1501 6.42158L13.2038 6.72842L13.5029 6.81541L13.6426 6.3353ZM14.8364 6.83165L14.5945 7.26925L14.8714 7.42227L15.1282 7.23767L14.8364 6.83165ZM16.5211 5.62087L16.8129 6.02689L16.8135 6.02644L16.5211 5.62087ZM16.9702 5.65704L17.3236 5.30338L17.3232 5.30297L16.9702 5.65704ZM18.323 7.00904L18.677 6.65599L18.6764 6.65538L18.323 7.00904ZM18.3619 7.45496L17.9529 7.16745L17.9527 7.16776L18.3619 7.45496ZM17.1618 9.16522L16.7526 8.87802L16.5737 9.13283L16.7235 9.40574L17.1618 9.16522ZM19.7891 10.1921L17.7333 9.85611L17.572 10.843L19.6278 11.179L19.7891 10.1921ZM20.5 11.0299C20.5008 10.6136 20.1992 10.259 19.789 10.1921L19.628 11.179C19.5545 11.1671 19.4998 11.1033 19.5 11.0279L20.5 11.0299ZM20.5 12.9419V11.0289H19.5V12.9419H20.5ZM19.7987 13.777C20.2051 13.7057 20.5 13.3528 20.5 12.9419H19.5C19.5 12.8684 19.5528 12.8049 19.626 12.792L19.7987 13.777ZM17.7402 14.1384L19.7988 13.777L19.6259 12.7921L17.5673 13.1534L17.7402 14.1384ZM17.6025 15.072C17.8267 14.6638 18.0046 14.2325 18.134 13.7848L17.1734 13.507C17.0642 13.8844 16.9144 14.2475 16.726 14.5906L17.6025 15.072ZM18.7868 16.2285L17.57 14.5391L16.7586 15.1235L17.9754 16.8129L18.7868 16.2285ZM18.6989 17.3231C18.9915 17.0297 19.0304 16.5663 18.7866 16.2282L17.9755 16.8132C17.9314 16.752 17.939 16.6691 17.9909 16.617L18.6989 17.3231ZM17.3461 18.6769L18.6986 17.3235L17.9912 16.6167L16.6388 17.97L17.3461 18.6769ZM16.2581 18.7706C16.5973 19.01 17.0555 18.9667 17.3455 18.6776L16.6394 17.9694C16.69 17.9189 16.7726 17.9097 16.8348 17.9536L16.2581 18.7706ZM14.5531 17.5746L16.2593 18.7714L16.8336 17.9528L15.1274 16.7559L14.5531 17.5746ZM13.7883 18.144C14.2402 18.011 14.6741 17.8298 15.0833 17.6022L14.5972 16.7283C14.2536 16.9194 13.8881 17.0722 13.5059 17.1847L13.7883 18.144ZM13.7759 19.8004L14.1394 17.7517L13.1548 17.577L12.7913 19.6257L13.7759 19.8004ZM12.9413 20.5C13.3522 20.5 13.7046 20.2051 13.776 19.7998L12.7912 19.6263C12.8041 19.5528 12.8678 19.5 12.9413 19.5V20.5ZM11.0281 20.5H12.9413V19.5H11.0281V20.5ZM10.1921 19.791C10.2594 20.2012 10.6144 20.5 11.0281 20.5V19.5C11.1015 19.5 11.1664 19.5533 11.1788 19.6289L10.1921 19.791ZM9.85274 17.7534L10.1922 19.7921L11.1787 19.6278L10.8392 17.5892L9.85274 17.7534ZM8.90668 17.6141C9.31935 17.841 9.75537 18.0211 10.2071 18.1516L10.4848 17.191C10.1038 17.0808 9.73622 16.9291 9.38848 16.7379L8.90668 17.6141ZM7.74034 18.772L9.43441 17.5855L8.86075 16.7665L7.16669 17.9529L7.74034 18.772ZM6.65438 18.677C6.94477 18.9674 7.40327 19.0088 7.74099 18.7715L7.16604 17.9533C7.22757 17.9101 7.30969 17.9182 7.36145 17.9699L6.65438 18.677ZM5.30177 17.3235L6.65424 18.6769L7.36159 17.97L6.00912 16.6167L5.30177 17.3235ZM5.21193 16.2308C4.97045 16.5683 5.00967 17.0298 5.30089 17.3226L6.01001 16.6175C6.0612 16.669 6.06912 16.7513 6.02522 16.8127L5.21193 16.2308ZM6.40882 14.5568L5.21185 16.2309L6.0253 16.8126L7.22228 15.1385L6.40882 14.5568ZM5.83513 13.7835C5.96694 14.2378 6.14893 14.6753 6.37797 15.0896L7.25313 14.6057C7.05987 14.2562 6.90653 13.8874 6.79553 13.5049L5.83513 13.7835ZM4.19969 13.7768L6.22804 14.1365L6.40263 13.1519L4.37428 12.7922L4.19969 13.7768ZM3.5 12.9419C3.5 13.3531 3.79498 13.7047 4.19927 13.7768L4.37469 12.7923C4.44713 12.8052 4.5 12.8681 4.5 12.9419H3.5ZM3.5 11.0289V12.9419H4.5V11.0289H3.5ZM4.20895 10.1927C3.8 10.2605 3.5 10.6146 3.5 11.0289H4.5C4.5 11.1036 4.44628 11.1669 4.37267 11.1792L4.20895 10.1927ZM6.23703 9.85496L4.20868 10.1927L4.37293 11.1791L6.40128 10.8414L6.23703 9.85496ZM6.38174 8.90288C6.15339 9.31613 5.9715 9.7535 5.83908 10.2084L6.79923 10.4879C6.91101 10.1039 7.06445 9.735 7.25701 9.38651L6.38174 8.90288ZM5.22721 7.73968L6.40957 9.43116L7.22918 8.85824L6.04682 7.16676L5.22721 7.73968ZM5.32243 6.65443C5.03209 6.94475 4.99052 7.40293 5.22794 7.74073L6.04608 7.16571C6.0894 7.22734 6.08123 7.30986 6.02951 7.36157L5.32243 6.65443ZM6.67455 5.30243L5.32243 6.65443L6.02951 7.36157L7.38163 6.00957L6.67455 5.30243ZM7.76708 5.21225C7.42868 4.97056 6.9682 5.0105 6.67557 5.30141L7.3806 6.01059C7.32939 6.0615 7.24669 6.06944 7.18587 6.02601L7.76708 5.21225ZM9.44722 6.41225L7.76708 5.21225L7.18587 6.02601L8.86602 7.22601L9.44722 6.41225ZM10.2141 5.84746C9.76164 5.97752 9.32668 6.15602 8.91653 6.38055L9.39671 7.25772C9.74141 7.06902 10.1079 6.91848 10.4903 6.80854L10.2141 5.84746ZM10.1913 4.21123L9.85874 6.24741L10.8457 6.40859L11.1782 4.37242L10.1913 4.21123ZM11.0281 3.5C10.6127 3.5 10.2583 3.80095 10.1913 4.21127L11.1782 4.37238C11.1662 4.44601 11.1026 4.5 11.0281 4.5V3.5ZM12.9413 3.5H11.0281V4.5H12.9413V3.5ZM13.7764 4.20145C13.7053 3.797 13.354 3.5 12.9413 3.5V4.5C12.8667 4.5 12.8041 4.44648 12.7915 4.37455L13.7764 4.20145ZM14.1351 6.24903L13.7764 4.20173L12.7914 4.37427L13.1501 6.42158L14.1351 6.24903ZM15.0783 6.39405C14.6671 6.16675 14.2328 5.98623 13.7822 5.8552L13.5029 6.81541C13.8824 6.92577 14.2481 7.07777 14.5945 7.26925L15.0783 6.39405ZM16.2293 5.21485L14.5446 6.42564L15.1282 7.23767L16.8129 6.02689L16.2293 5.21485ZM17.3232 5.30297C17.0298 5.01047 16.5668 4.97152 16.2287 5.2153L16.8135 6.02644C16.7523 6.07057 16.6691 6.06293 16.6171 6.01112L17.3232 5.30297ZM18.6764 6.65538L17.3236 5.30338L16.6167 6.0107L17.9695 7.3627L18.6764 6.65538ZM18.771 7.74246C19.0086 7.40447 18.9666 6.94635 18.677 6.65599L17.9689 7.3621C17.918 7.31104 17.9094 7.22926 17.9529 7.16745L18.771 7.74246ZM17.5711 9.45242L18.7712 7.74216L17.9527 7.16776L16.7526 8.87802L17.5711 9.45242ZM18.1327 10.2095C18.0021 9.76201 17.8236 9.3318 17.6002 8.92469L16.7235 9.40574C16.912 9.74924 17.0625 10.1121 17.1727 10.4896L18.1327 10.2095ZM12 13.9348C10.9313 13.9348 10.065 13.0685 10.065 12H9.06501C9.06501 13.6209 10.3791 14.9348 12 14.9348V13.9348ZM13.935 12C13.935 13.0685 13.0687 13.9348 12 13.9348V14.9348C13.6209 14.9348 14.935 13.6209 14.935 12H13.935ZM12 10.0652C13.0687 10.0652 13.935 10.9315 13.935 12H14.935C14.935 10.3791 13.6209 9.06522 12 9.06522V10.0652ZM10.065 12C10.065 10.9315 10.9313 10.0652 12 10.0652V9.06522C10.3791 9.06522 9.06501 10.3791 9.06501 12H10.065Z" fill="black"/>
</svg>
