<svg width="24" height="24" viewBox="0 0 24 24" fill="none" xmlns="http://www.w3.org/2000/svg">
<path d="M5 10.287V5.8C5 5.35817 5.35817 5 5.8 5H10.287C10.7288 5 11.087 5.35817 11.087 5.8V10.287C11.087 10.7288 10.7288 11.087 10.287 11.087H5.8C5.35817 11.087 5 10.7288 5 10.287Z" stroke="black"/>
<path d="M12.9132 10.287V5.8C12.9132 5.35817 13.2713 5 13.7132 5H18.2001C18.642 5 19.0001 5.35817 19.0001 5.8V10.287C19.0001 10.7288 18.642 11.087 18.2001 11.087H13.7132C13.2714 11.087 12.9132 10.7288 12.9132 10.287Z" stroke="black"/>
<path d="M12.9132 18.2V13.7131C12.9132 13.2713 13.2713 12.9131 13.7132 12.9131H18.2001C18.642 12.9131 19.0001 13.2713 19.0001 13.7131V18.2C19.0001 18.6419 18.642 19.0001 18.2001 19.0001H13.7132C13.2714 19.0001 12.9132 18.6419 12.9132 18.2Z" stroke="black"/>
<path d="M5 18.2V13.7131C5 13.2713 5.35817 12.9131 5.8 12.9131H10.287C10.7288 12.9131 11.087 13.2713 11.087 13.7131V18.2C11.087 18.6419 10.7288 19.0001 10.287 19.0001H5.8C5.35817 19.0001 5 18.6419 5 18.2Z" stroke="black"/>
</svg>
