<svg width="24" height="24" viewBox="0 0 24 24" fill="none" xmlns="http://www.w3.org/2000/svg">
<path fill-rule="evenodd" clip-rule="evenodd" d="M14.3307 7.16929C13.5873 7.05887 12.806 7 12 7C7.02944 7 3 9.23858 3 12C3 13.4401 4.09589 14.738 5.84963 15.6504L6.59563 14.9044C6.43117 14.8266 6.27305 14.7455 6.12168 14.6614C4.63388 13.8348 4 12.8526 4 12C4 11.1474 4.63388 10.1652 6.12168 9.33862C7.57561 8.53089 9.65195 8 12 8C12.4905 8 12.9692 8.02317 13.4328 8.06719L14.3307 7.16929ZM11.1787 15.9781C11.4483 15.9926 11.7222 16 12 16C14.3481 16 16.4244 15.4691 17.8783 14.6614C19.3661 13.8348 20 12.8526 20 12C20 11.1474 19.3661 10.1652 17.8783 9.33862C17.8655 9.33148 17.8526 9.32436 17.8396 9.31726L18.5726 8.58427C20.0782 9.47809 21 10.6792 21 12C21 14.7614 16.9706 17 12 17C11.4016 17 10.8169 16.9676 10.2512 16.9057L11.1787 15.9781Z" fill="black"/>
<rect x="19" y="4.5" width="1" height="20" rx="0.5" transform="rotate(45 19 4.5)" fill="black"/>
</svg>
