<svg width="24" height="24" viewBox="0 0 24 24" fill="none" xmlns="http://www.w3.org/2000/svg">
<path d="M20.6856 9.18498L21.0023 8.798L20.6856 9.18498ZM11.0246 2.22003L10.6901 1.84839L10.6901 1.84839L11.0246 2.22003ZM3.28374 9.18682L3.61823 9.55847L3.28374 9.18682ZM3.61823 9.55847L11.3591 2.59168L10.6901 1.84839L2.94926 8.81518L3.61823 9.55847ZM3.5 20.585V9.82393H2.5V20.585H3.5ZM8.57143 20.9422H3.85714V21.9422H8.57143V20.9422ZM9.92857 20.585V15.4422H8.92857V20.585H9.92857ZM10.2857 15.085H13.7143V14.085H10.2857V15.085ZM14.0714 15.4422V20.585H15.0714V15.4422H14.0714ZM20.1429 20.9422H15.4286V21.9422H20.1429V20.9422ZM20.5 9.84837V20.585H21.5V9.84837H20.5ZM11.8242 2.58073L20.369 9.57196L21.0023 8.798L12.4574 1.80677L11.8242 2.58073ZM21.5 9.84837C21.5 9.44132 21.3173 9.05576 21.0023 8.798L20.369 9.57196C20.4519 9.63979 20.5 9.74126 20.5 9.84837H21.5ZM20.1429 21.9422C20.8924 21.9422 21.5 21.3346 21.5 20.585H20.5C20.5 20.7823 20.3401 20.9422 20.1429 20.9422V21.9422ZM14.0714 20.585C14.0714 21.3346 14.679 21.9422 15.4286 21.9422V20.9422C15.2313 20.9422 15.0714 20.7823 15.0714 20.585H14.0714ZM13.7143 15.085C13.9115 15.085 14.0714 15.2449 14.0714 15.4422H15.0714C15.0714 14.6927 14.4638 14.085 13.7143 14.085V15.085ZM9.92857 15.4422C9.92857 15.2449 10.0885 15.085 10.2857 15.085V14.085C9.53618 14.085 8.92857 14.6927 8.92857 15.4422H9.92857ZM8.57143 21.9422C9.32096 21.9422 9.92857 21.3346 9.92857 20.585H8.92857C8.92857 20.7823 8.76867 20.9422 8.57143 20.9422V21.9422ZM2.5 20.585C2.5 21.3346 3.10761 21.9422 3.85714 21.9422V20.9422C3.6599 20.9422 3.5 20.7823 3.5 20.585H2.5ZM11.3591 2.59168C11.4902 2.47372 11.6877 2.46907 11.8242 2.58073L12.4574 1.80677C11.9388 1.38247 11.1882 1.40015 10.6901 1.84839L11.3591 2.59168ZM2.94926 8.81518C2.66329 9.07255 2.5 9.4392 2.5 9.82393H3.5C3.5 9.72269 3.54297 9.6262 3.61823 9.55847L2.94926 8.81518Z" fill="black"/>
</svg>
