<svg width="24" height="24" viewBox="0 0 24 24" fill="none" xmlns="http://www.w3.org/2000/svg">
<path d="M9.61634 11.9561L9.84988 11.7226L9.72673 11.4161C9.4938 10.8365 9.36537 10.2031 9.36537 9.53846C9.36537 6.7558 11.6212 4.5 14.4038 4.5C17.1865 4.5 19.4423 6.7558 19.4423 9.53846C19.4423 12.3211 17.1865 14.5769 14.4038 14.5769C14.0548 14.5769 13.7145 14.5415 13.3863 14.4742L13.1227 14.4202L12.9324 14.6105L8.48222 19.0607C8.20092 19.342 7.81938 19.5 7.42156 19.5H5.55768C5.28154 19.5 5.05768 19.2761 5.05768 19V17.1361C5.05768 16.7383 5.21571 16.3568 5.49702 16.0755L9.61634 11.9561Z" stroke="black"/>
<circle cx="14.5207" cy="9.12077" r="1.73077" stroke="black"/>
</svg>
