<svg width="24" height="24" viewBox="0 0 24 24" fill="none" xmlns="http://www.w3.org/2000/svg">
<rect x="13.0955" y="8.14412" width="4" height="15" rx="2" transform="rotate(45 13.0955 8.14412)" stroke="black"/>
<path d="M14.5097 12.3868L13.0955 13.801L10.2671 10.9725L11.6813 9.55833C12.4624 8.77728 13.7287 8.77728 14.5097 9.55833C15.2908 10.3394 15.2908 11.6057 14.5097 12.3868Z" stroke="black"/>
<path d="M8.19938 3.11033C8.26579 2.86366 8.61577 2.86366 8.68218 3.11033L9.03976 4.43836C9.06292 4.5244 9.13013 4.59161 9.21616 4.61477L10.5442 4.97234C10.7909 5.03876 10.7909 5.38873 10.5442 5.45515L9.21616 5.81272C9.13013 5.83588 9.06292 5.90309 9.03976 5.98913L8.68218 7.31716C8.61577 7.56383 8.26579 7.56383 8.19938 7.31716L7.84181 5.98913C7.81864 5.90309 7.75144 5.83589 7.6654 5.81272L6.33736 5.45515C6.09069 5.38873 6.09069 5.03876 6.33736 4.97234L7.6654 4.61477C7.75144 4.59161 7.81864 4.5244 7.84181 4.43836L8.19938 3.11033Z" fill="black"/>
<path d="M18.1331 2.61033C18.1995 2.36366 18.5495 2.36366 18.6159 2.61033L18.9734 3.93836C18.9966 4.0244 19.0638 4.09161 19.1498 4.11477L20.4779 4.47234C20.7246 4.53876 20.7246 4.88873 20.4779 4.95515L19.1498 5.31272C19.0638 5.33588 18.9966 5.40309 18.9734 5.48913L18.6159 6.81716C18.5495 7.06383 18.1995 7.06383 18.1331 6.81716L17.7755 5.48913C17.7523 5.40309 17.6851 5.33589 17.5991 5.31272L16.271 4.95515C16.0244 4.88873 16.0244 4.53876 16.271 4.47234L17.5991 4.11477C17.6851 4.09161 17.7523 4.0244 17.7755 3.93836L18.1331 2.61033Z" fill="black"/>
<path d="M18.9768 12.162C19.0433 11.9154 19.3932 11.9154 19.4596 12.162L19.8172 13.4901C19.8404 13.5761 19.9076 13.6433 19.9936 13.6665L21.3217 14.024C21.5683 14.0905 21.5683 14.4404 21.3217 14.5068L19.9936 14.8644C19.9076 14.8876 19.8404 14.9548 19.8172 15.0408L19.4596 16.3689C19.3932 16.6155 19.0433 16.6155 18.9768 16.3689L18.6193 15.0408C18.5961 14.9548 18.5289 14.8876 18.4429 14.8644L17.1148 14.5068C16.8682 14.4404 16.8682 14.0905 17.1148 14.024L18.4429 13.6665C18.5289 13.6433 18.5961 13.5761 18.6193 13.4901L18.9768 12.162Z" fill="black"/>
</svg>
