<svg width="24" height="24" viewBox="0 0 24 24" fill="none" xmlns="http://www.w3.org/2000/svg">
<path d="M10.5884 5H13.4458C13.621 5 13.7674 5.08778 13.8422 5.22115C14.1605 5.78872 14.7032 6.82721 15.1654 8.05953C15.6296 9.29736 16 10.6985 16 12V20C16 20.8284 15.3284 21.5 14.5 21.5H9.5C8.67157 21.5 8 20.8284 8 20V12C8 10.8993 8.36889 9.53856 8.83917 8.2639C9.30531 7.00047 9.85239 5.87026 10.1718 5.24579C10.2477 5.09728 10.4042 5 10.5884 5Z" stroke="black"/>
<rect x="9" y="3" width="6" height="2" rx="0.5" stroke="black"/>
<rect x="9.5" y="12" width="1" height="7" rx="0.5" fill="black"/>
</svg>
