<svg width="24" height="24" viewBox="0 0 24 24" fill="none" xmlns="http://www.w3.org/2000/svg">
<path d="M12 13.0333C15.8249 13.0333 18.9817 15.897 19.4422 19.5971C19.4681 19.8052 19.2952 20.0333 19 20.0333H5C4.70485 20.0333 4.53192 19.8052 4.55782 19.5971C5.01827 15.897 8.17509 13.0333 12 13.0333Z" stroke="black"/>
<path d="M12 10.9667C10.5784 10.9667 9.3 9.59414 9.3 7.73334H14.7C14.7 9.59414 13.4216 10.9667 12 10.9667Z" stroke="black"/>
<path d="M15.2333 7.73333C15.2333 7.74446 15.2332 7.75557 15.2331 7.76666H8.76677C8.76666 7.75557 8.7666 7.74446 8.7666 7.73333C8.7666 5.94761 10.2142 4.5 11.9999 4.5C13.7857 4.5 15.2333 5.94761 15.2333 7.73333Z" stroke="black"/>
<line x1="8.23334" y1="7.76666" x2="15.7667" y2="7.76666" stroke="black" stroke-linecap="round" stroke-linejoin="round"/>
<circle cx="12" cy="5.6" r="1.1" stroke="black"/>
<line x1="12" y1="7.73332" x2="12" y2="6.66666" stroke="black"/>
</svg>
