<svg width="24" height="24" viewBox="0 0 24 24" fill="none" xmlns="http://www.w3.org/2000/svg">
<mask id="path-1-inside-1" fill="white">
<rect x="14.8574" y="8.96931" width="1.6595" height="13.4497" rx="0.5" transform="rotate(45 14.8574 8.96931)"/>
</mask>
<rect x="14.8574" y="8.96931" width="1.6595" height="13.4497" rx="0.5" transform="rotate(45 14.8574 8.96931)" stroke="black" stroke-width="1.2" mask="url(#path-1-inside-1)"/>
<path d="M16.8929 8.10705C18.6042 9.81831 19.5202 11.9276 19.5332 13.6809L15.4261 9.57385L11.3191 5.4668C13.0669 5.37482 15.1817 6.39578 16.8929 8.10705Z" stroke="black" stroke-width="0.6"/>
<mask id="path-3-inside-2" fill="white">
<rect x="8.0061" y="10.5779" width="1.6595" height="12.8344" rx="0.5" transform="rotate(-45 8.0061 10.5779)"/>
</mask>
<rect x="8.0061" y="10.5779" width="1.6595" height="12.8344" rx="0.5" transform="rotate(-45 8.0061 10.5779)" fill="white" stroke="black" stroke-width="1.2" mask="url(#path-3-inside-2)"/>
<path d="M8.06836 6.37069L10.2031 8.50544L7.10705 11.6015L4.97229 9.46675C4.11734 8.61179 4.11734 7.22564 4.97229 6.37069C5.82725 5.51573 7.2134 5.51573 8.06836 6.37069Z" stroke="black" stroke-width="0.6"/>
<mask id="path-5-inside-3" fill="white">
<rect x="17.2811" y="6.54559" width="1.6595" height="1.50126" rx="0.5" transform="rotate(45 17.2811 6.54559)"/>
</mask>
<rect x="17.2811" y="6.54559" width="1.6595" height="1.50126" rx="0.5" transform="rotate(45 17.2811 6.54559)" stroke="black" stroke-width="1.2" mask="url(#path-5-inside-3)"/>
</svg>
