<svg width="24" height="24" viewBox="0 0 24 24" fill="none" xmlns="http://www.w3.org/2000/svg">
<path d="M21.7585 9.58108L21.7584 9.58108V9.58793V14.6297C21.7534 14.7422 21.6965 14.8469 21.5857 14.9095L13.0196 19.7428C12.4054 20.0893 11.655 20.0903 11.04 19.7453L2.41937 14.9099C2.30652 14.8466 2.24942 14.7394 2.24608 14.624L2.24158 14.4689V10.0879H2.25292L2.24596 9.58107C2.24433 9.46205 2.29998 9.34971 2.41447 9.28296L11.0107 4.27138C11.6407 3.90413 12.4197 3.90513 13.0487 4.274L21.5906 9.28342C21.7047 9.35032 21.7601 9.4625 21.7585 9.58108Z" stroke="black"/>
<path d="M2.41447 9.28296L11.0107 4.27138C11.6407 3.90413 12.4197 3.90513 13.0487 4.274L21.5906 9.28342C21.8165 9.41589 21.8138 9.74338 21.5857 9.87207L13.0196 14.7054C12.4054 15.0519 11.655 15.0528 11.04 14.7079L2.41938 9.87247C2.19032 9.74398 2.18758 9.41523 2.41447 9.28296Z" stroke="black"/>
</svg>
