<svg width="24" height="24" viewBox="0 0 24 24" fill="none" xmlns="http://www.w3.org/2000/svg">
<path fill-rule="evenodd" clip-rule="evenodd" d="M10.2201 7.60648C10.2377 7.62245 10.2555 7.63819 10.2735 7.6537L7.65363 10.2736C7.43374 10.0182 7.16595 9.80531 6.8642 9.64879L9.64872 6.86426C9.79421 7.14474 9.98842 7.39588 10.2201 7.60648ZM6.8642 14.3512C7.16595 14.1947 7.43374 13.9818 7.65363 13.7265L10.2735 16.3463C10.0182 16.5662 9.80525 16.834 9.64872 17.1358L6.8642 14.3512ZM13.7264 7.65367C13.9691 7.44467 14.1735 7.19239 14.3275 6.90882C14.3356 6.89404 14.3434 6.87918 14.3512 6.86423L17.1357 9.64877C16.834 9.80529 16.5662 10.0182 16.3463 10.2735L13.7264 7.65367ZM16.3463 13.7265L13.7264 16.3464C13.9818 16.5663 14.1947 16.8341 14.3512 17.1358L17.1357 14.3513C16.834 14.1947 16.5662 13.9818 16.3463 13.7265Z" fill="black"/>
<circle cx="12" cy="5.64706" r="2.14706" stroke="black"/>
<circle cx="12" cy="18.3529" r="2.14706" stroke="black"/>
<circle cx="5.64706" cy="12" r="2.14706" stroke="black"/>
<circle cx="18.3529" cy="12" r="2.14706" stroke="black"/>
</svg>
