<svg width="24" height="24" viewBox="0 0 24 24" fill="none" xmlns="http://www.w3.org/2000/svg">
<path fill-rule="evenodd" clip-rule="evenodd" d="M13.7264 7.65367C13.9818 7.43378 14.1947 7.16598 14.3512 6.86423L17.1357 9.64877C16.834 9.80529 16.5662 10.0182 16.3463 10.2735L13.7264 7.65367ZM16.3463 13.7265L13.7264 16.3464C13.9818 16.5663 14.1947 16.8341 14.3512 17.1358L17.1357 14.3513C16.834 14.1947 16.5662 13.9818 16.3463 13.7265ZM10.2735 16.3463L7.65364 13.7265C7.43375 13.9818 7.16595 14.1947 6.8642 14.3512L9.64873 17.1358C9.80525 16.834 10.0182 16.5662 10.2735 16.3463ZM10.2735 7.6537L7.65364 10.2736C7.43375 10.0182 7.16595 9.80531 6.8642 9.64879L9.64873 6.86426C9.80525 7.16601 10.0182 7.43381 10.2735 7.6537Z" fill="black"/>
<circle cx="12" cy="5.64706" r="2.64706" fill="black"/>
<circle cx="12" cy="18.3529" r="2.14706" stroke="black"/>
<circle cx="5.64706" cy="12" r="2.14706" stroke="black"/>
<circle cx="18.3529" cy="12" r="2.64706" fill="black"/>
</svg>
