<svg width="24" height="24" viewBox="0 0 24 24" fill="none" xmlns="http://www.w3.org/2000/svg">
<rect x="12" y="11" width="1" height="1" fill="black"/>
<rect x="12" y="7.5" width="1" height="1" fill="black"/>
<rect x="8.5" y="11" width="1" height="1" fill="black"/>
<rect x="5" y="11" width="1" height="1" fill="black"/>
<rect x="12" y="4" width="1" height="1" fill="black"/>
<rect x="12" y="14.5" width="1" height="1" fill="black"/>
<rect x="12" y="18" width="1" height="1" fill="black"/>
<rect x="15.5" y="11" width="1" height="1" fill="black"/>
<rect x="15.5" y="14.5" width="1" height="1" fill="black"/>
<rect x="15.5" y="18" width="1" height="1" fill="black"/>
<rect x="18.9999" y="11" width="1" height="1" fill="black"/>
<rect x="19" y="14.5" width="1" height="1" fill="black"/>
<rect x="18.9999" y="18" width="1" height="1" fill="black"/>
<rect x="5.5" y="4.5" width="3.5" height="3.5" rx="0.5" stroke="black"/>
<rect x="5.5" y="15" width="3.5" height="3.5" rx="0.5" stroke="black"/>
<rect x="15.9886" y="4.4903" width="3.5" height="3.5" rx="0.5" stroke="black"/>
</svg>
