<svg width="24" height="24" viewBox="0 0 24 24" fill="none" xmlns="http://www.w3.org/2000/svg">
<path fill-rule="evenodd" clip-rule="evenodd" d="M11.254 15.078H13.452V17.234H11.254V15.078ZM9 10.458C9.00933 9.954 9.09567 9.492 9.259 9.072C9.42233 8.652 9.651 8.288 9.945 7.98C10.239 7.672 10.5937 7.43167 11.009 7.259C11.4243 7.08633 11.8887 7 12.402 7C13.0647 7 13.6177 7.091 14.061 7.273C14.5043 7.455 14.8613 7.68133 15.132 7.952C15.4027 8.22267 15.5963 8.51433 15.713 8.827C15.8297 9.13967 15.888 9.43133 15.888 9.702C15.888 10.15 15.8297 10.5187 15.713 10.808C15.5963 11.0973 15.4517 11.3447 15.279 11.55C15.1063 11.7553 14.915 11.9303 14.705 12.075C14.495 12.2197 14.2967 12.3643 14.11 12.509C13.9233 12.6537 13.7577 12.8193 13.613 13.006C13.4683 13.1927 13.3773 13.426 13.34 13.706V14.238H11.45V13.608C11.478 13.2067 11.555 12.8707 11.681 12.6C11.807 12.3293 11.954 12.0983 12.122 11.907C12.29 11.7157 12.4673 11.55 12.654 11.41C12.8407 11.27 13.0133 11.13 13.172 10.99C13.3307 10.85 13.459 10.696 13.557 10.528C13.655 10.36 13.6993 10.15 13.69 9.898C13.69 9.46866 13.585 9.15133 13.375 8.946C13.165 8.74067 12.8733 8.638 12.5 8.638C12.248 8.638 12.031 8.687 11.849 8.785C11.667 8.883 11.5177 9.01367 11.401 9.177C11.2843 9.34033 11.198 9.53167 11.142 9.751C11.086 9.97033 11.058 10.206 11.058 10.458H9Z" fill="black"/>
</svg>
