<svg width="24" height="24" viewBox="0 0 24 24" fill="none" xmlns="http://www.w3.org/2000/svg">
<rect x="2.5" y="2.5" width="19" height="19" rx="0.5" stroke="black"/>
<rect x="5.5" y="5.5" width="13" height="13" rx="0.5" stroke="black"/>
<path d="M5.5 21.5H7.5V22.45C7.5 22.4776 7.47761 22.5 7.45 22.5H5.55C5.52239 22.5 5.5 22.4776 5.5 22.45V21.5Z" stroke="black"/>
<path d="M16.5 21.5H18.5V22.45C18.5 22.4776 18.4776 22.5 18.45 22.5H16.55C16.5224 22.5 16.5 22.4776 16.5 22.45V21.5Z" stroke="black"/>
<circle cx="12" cy="12" r="2.5" stroke="black"/>
<rect x="7.40002" y="15.8853" width="4" height="1" rx="0.5" transform="rotate(-45 7.40002 15.8853)" fill="black"/>
<rect x="13.0569" y="10.2284" width="4" height="1" rx="0.5" transform="rotate(-45 13.0569 10.2284)" fill="black"/>
<rect x="8.10718" y="7.39999" width="4" height="1" rx="0.5" transform="rotate(45 8.10718 7.39999)" fill="black"/>
<rect x="13.764" y="13.0569" width="4" height="1" rx="0.5" transform="rotate(45 13.764 13.0569)" fill="black"/>
</svg>
