<svg width="24" height="24" viewBox="0 0 24 24" fill="none" xmlns="http://www.w3.org/2000/svg">
<mask id="path-1-outside-1" maskUnits="userSpaceOnUse" x="2" y="2" width="20" height="20" fill="black">
<rect fill="white" x="2" y="2" width="20" height="20"/>
<path fill-rule="evenodd" clip-rule="evenodd" d="M21 12C21 16.9706 16.9706 21 12 21C7.02944 21 3 16.9706 3 12C3 7.02944 7.02944 3 12 3C16.9706 3 21 7.02944 21 12ZM8.74857 8.49844L16.3865 10.5616L16.6107 9.5871L8.97285 7.52392L8.74857 8.49844ZM13.9781 5.62692L13.5713 7.40096L12.6062 7.13929L13.013 5.36525L13.9781 5.62692ZM10.9858 18.6348L11.3939 16.8611L10.4285 16.6002L10.0205 18.3739L10.9858 18.6348ZM15.7041 13.5225L8.06719 11.4559L8.29109 10.4813L15.928 12.5478L15.7041 13.5225ZM7.38796 14.4122L15.0257 16.4761L15.2499 15.5015L7.61216 13.4377L7.38796 14.4122Z"/>
</mask>
<path d="M16.3865 10.5616L16.1257 11.527L17.1281 11.7978L17.361 10.7859L16.3865 10.5616ZM8.74857 8.49844L7.77405 8.27417L7.55806 9.2127L8.4878 9.46384L8.74857 8.49844ZM16.6107 9.5871L17.5853 9.81137L17.8012 8.87285L16.8715 8.6217L16.6107 9.5871ZM8.97285 7.52392L9.23362 6.55852L8.23119 6.28774L7.99832 7.29965L8.97285 7.52392ZM13.5713 7.40096L13.3097 8.36612L14.3136 8.6383L14.546 7.62445L13.5713 7.40096ZM13.9781 5.62692L14.9528 5.85041L15.1677 4.91334L14.2398 4.66177L13.9781 5.62692ZM12.6062 7.13929L11.6315 6.9158L11.4166 7.85288L12.3445 8.10445L12.6062 7.13929ZM13.013 5.36525L13.2746 4.4001L12.2707 4.12792L12.0382 5.14176L13.013 5.36525ZM11.3939 16.8611L12.3684 17.0853L12.5843 16.1469L11.6547 15.8957L11.3939 16.8611ZM10.9858 18.6348L10.725 19.6002L11.7275 19.8711L11.9604 18.859L10.9858 18.6348ZM10.4285 16.6002L10.6894 15.6348L9.6868 15.3639L9.45396 16.376L10.4285 16.6002ZM10.0205 18.3739L9.04591 18.1497L8.83003 19.0881L9.75959 19.3393L10.0205 18.3739ZM8.06719 11.4559L7.09258 11.232L6.87713 12.1698L7.80598 12.4212L8.06719 11.4559ZM15.7041 13.5225L15.4429 14.4877L16.4461 14.7592L16.6787 13.7464L15.7041 13.5225ZM8.29109 10.4813L8.55229 9.51599L7.54915 9.24454L7.31647 10.2574L8.29109 10.4813ZM15.928 12.5478L16.9026 12.7717L17.1181 11.8339L16.1892 11.5826L15.928 12.5478ZM15.0257 16.4761L14.7648 17.4415L15.7674 17.7124L16.0002 16.7003L15.0257 16.4761ZM7.38796 14.4122L6.41342 14.188L6.19754 15.1264L7.1271 15.3776L7.38796 14.4122ZM15.2499 15.5015L16.2244 15.7257L16.4403 14.7873L15.5107 14.5362L15.2499 15.5015ZM7.61216 13.4377L7.87302 12.4723L6.87045 12.2014L6.63762 13.2135L7.61216 13.4377ZM12 22C17.5228 22 22 17.5228 22 12H20C20 16.4183 16.4183 20 12 20V22ZM2 12C2 17.5228 6.47715 22 12 22V20C7.58172 20 4 16.4183 4 12H2ZM12 2C6.47715 2 2 6.47715 2 12H4C4 7.58172 7.58172 4 12 4V2ZM22 12C22 6.47715 17.5228 2 12 2V4C16.4183 4 20 7.58172 20 12H22ZM16.6472 9.59623L9.00935 7.53305L8.4878 9.46384L16.1257 11.527L16.6472 9.59623ZM15.6362 9.36283L15.4119 10.3374L17.361 10.7859L17.5853 9.81137L15.6362 9.36283ZM8.71207 8.48932L16.35 10.5525L16.8715 8.6217L9.23362 6.55852L8.71207 8.48932ZM9.7231 8.72271L9.94737 7.74819L7.99832 7.29965L7.77405 8.27417L9.7231 8.72271ZM14.546 7.62445L14.9528 5.85041L13.0034 5.40343L12.5966 7.17747L14.546 7.62445ZM12.3445 8.10445L13.3097 8.36612L13.833 6.43581L12.8679 6.17413L12.3445 8.10445ZM12.0382 5.14176L11.6315 6.9158L13.5809 7.36278L13.9877 5.58874L12.0382 5.14176ZM14.2398 4.66177L13.2746 4.4001L12.7513 6.33041L13.7164 6.59208L14.2398 4.66177ZM10.4193 16.6369L10.0113 18.4106L11.9604 18.859L12.3684 17.0853L10.4193 16.6369ZM10.1676 17.5656L11.133 17.8264L11.6547 15.8957L10.6894 15.6348L10.1676 17.5656ZM10.995 18.5981L11.403 16.8244L9.45396 16.376L9.04591 18.1497L10.995 18.5981ZM11.2467 17.6694L10.2813 17.4086L9.75959 19.3393L10.725 19.6002L11.2467 17.6694ZM7.80598 12.4212L15.4429 14.4877L15.9653 12.5572L8.3284 10.4906L7.80598 12.4212ZM7.31647 10.2574L7.09258 11.232L9.0418 11.6798L9.2657 10.7052L7.31647 10.2574ZM16.1892 11.5826L8.55229 9.51599L8.02988 11.4466L15.6668 13.5131L16.1892 11.5826ZM16.6787 13.7464L16.9026 12.7717L14.9534 12.324L14.7295 13.2986L16.6787 13.7464ZM15.2865 15.5107L7.64882 13.4469L7.1271 15.3776L14.7648 17.4415L15.2865 15.5107ZM14.2753 15.2773L14.0511 16.2519L16.0002 16.7003L16.2244 15.7257L14.2753 15.2773ZM7.3513 14.4031L14.989 16.4669L15.5107 14.5362L7.87302 12.4723L7.3513 14.4031ZM8.36251 14.6364L8.5867 13.6619L6.63762 13.2135L6.41342 14.188L8.36251 14.6364Z" fill="black" mask="url(#path-1-outside-1)"/>
</svg>
