<svg width="24" height="24" viewBox="0 0 24 24" fill="none" xmlns="http://www.w3.org/2000/svg">
<path d="M15.8182 5H10.9527C10.8276 5 10.707 5.04689 10.6148 5.13142L6.66214 8.75472C6.55882 8.84942 6.5 8.98314 6.5 9.12329V17.5C6.5 18.2884 7.21113 19 8.18182 19H15.8182C16.7889 19 17.5 18.2884 17.5 17.5V6.5C17.5 5.71164 16.7889 5 15.8182 5Z" stroke="black"/>
<path fill-rule="evenodd" clip-rule="evenodd" d="M11.5 6.5C11.2239 6.5 11 6.72386 11 7V10C11 10.2761 11.2239 10.5 11.5 10.5C11.7761 10.5 12 10.2761 12 10V7C12 6.72386 11.7761 6.5 11.5 6.5ZM13 7C13 6.72386 13.2239 6.5 13.5 6.5C13.7761 6.5 14 6.72386 14 7V10C14 10.2761 13.7761 10.5 13.5 10.5C13.2239 10.5 13 10.2761 13 10V7ZM15 7C15 6.72386 15.2239 6.5 15.5 6.5C15.7761 6.5 16 6.72386 16 7V10C16 10.2761 15.7761 10.5 15.5 10.5C15.2239 10.5 15 10.2761 15 10V7Z" fill="black"/>
</svg>
