<svg width="24" height="24" viewBox="0 0 24 24" fill="none" xmlns="http://www.w3.org/2000/svg">
<path d="M19.5 10.5H19V11H19.5V10.5ZM4.5 10.5V11H5V10.5H4.5ZM17.625 5H6.375V6H17.625V5ZM20 7.5C20 6.76065 19.8693 6.10327 19.4432 5.63823C19.0073 5.16251 18.368 5 17.625 5V6C18.2474 6 18.5456 6.13883 18.7059 6.31377C18.8759 6.4994 19 6.84201 19 7.5H20ZM20 10.5V7.5H19V10.5H20ZM20.5909 10H19.5V11H20.5909V10ZM23 12.2778C23 11.6571 22.8671 11.0566 22.4359 10.6181C22.0038 10.1787 21.369 10 20.5909 10V11C21.2367 11 21.5564 11.1499 21.7229 11.3192C21.8903 11.4895 22 11.7778 22 12.2778H23ZM23 16.7222V12.2778H22V16.7222H23ZM20.5909 19C21.2894 19 21.9158 18.8584 22.3655 18.4482C22.825 18.029 23 17.4223 23 16.7222H22C22 17.2694 21.8645 17.5517 21.6915 17.7095C21.5086 17.8763 21.1805 18 20.5909 18V19ZM3.40909 19H20.5909V18H3.40909V19ZM1 16.7222C1 17.4554 1.1703 18.0727 1.64157 18.4867C2.09731 18.887 2.72861 19 3.40909 19V18C2.80155 18 2.47831 17.8907 2.30151 17.7354C2.14024 17.5937 2 17.3221 2 16.7222H1ZM1 12.2778V16.7222H2V12.2778H1ZM3.40909 10C2.71831 10 2.09142 10.134 1.63963 10.5408C1.1763 10.9581 1 11.5671 1 12.2778H2C2 11.7178 2.13781 11.4379 2.3088 11.2839C2.49135 11.1195 2.819 11 3.40909 11V10ZM4.5 10H3.40909V11H4.5V10ZM4 7.5V10.5H5V7.5H4ZM6.375 5C5.64961 5 5.01022 5.1491 4.56959 5.61788C4.1365 6.07863 4 6.73931 4 7.5H5C5 6.82155 5.12955 6.48223 5.29823 6.30277C5.45938 6.13133 5.75749 6 6.375 6V5Z" fill="black"/>
<path d="M4 10.5V10.5C4.82842 10.5 5.5 11.1716 5.5 12V15H18.5V12C18.5 11.1716 19.1716 10.5 20 10.5L20.5 10.5" stroke="black" stroke-linecap="round" stroke-linejoin="round"/>
</svg>
