<svg width="24" height="24" viewBox="0 0 24 24" fill="none" xmlns="http://www.w3.org/2000/svg">
<path d="M12.6589 14.2639L13.0125 14.6175L13.2656 14.3643L13.1076 14.0431L12.6589 14.2639ZM9.18937 17.7335L9.54292 18.0871L9.54292 18.0871L9.18937 17.7335ZM11.4878 20.0319L11.8413 20.3855L11.8413 20.3855L11.4878 20.0319ZM15.1678 16.3519L15.3028 15.8704L15.0211 15.7915L14.8142 15.9983L15.1678 16.3519ZM19.75 12.5C19.75 14.433 18.183 16 16.25 16V17C18.7353 17 20.75 14.9853 20.75 12.5H19.75ZM16.25 9C18.183 9 19.75 10.567 19.75 12.5H20.75C20.75 10.0147 18.7353 8 16.25 8V9ZM12.75 12.5C12.75 10.567 14.317 9 16.25 9V8C13.7647 8 11.75 10.0147 11.75 12.5H12.75ZM13.1076 14.0431C12.8788 13.5782 12.75 13.0549 12.75 12.5H11.75C11.75 13.2113 11.9154 13.8854 12.2103 14.4847L13.1076 14.0431ZM9.54292 18.0871L13.0125 14.6175L12.3054 13.9104L8.83582 17.3799L9.54292 18.0871ZM9.25003 18.7942C9.25003 18.5289 9.35539 18.2746 9.54292 18.0871L8.83582 17.3799C8.46074 17.755 8.25003 18.2637 8.25003 18.7942H9.25003ZM9.25003 20.2212V18.7942H8.25003V20.2212H9.25003ZM9.00003 19.9712C9.1381 19.9712 9.25003 20.0832 9.25003 20.2212H8.25003C8.25003 20.6355 8.58582 20.9712 9.00003 20.9712V19.9712ZM10.4271 19.9712H9.00003V20.9712H10.4271V19.9712ZM11.1342 19.6783C10.9467 19.8659 10.6923 19.9712 10.4271 19.9712V20.9712C10.9575 20.9712 11.4663 20.7605 11.8413 20.3855L11.1342 19.6783ZM14.8142 15.9983L11.1342 19.6783L11.8413 20.3855L15.5213 16.7054L14.8142 15.9983ZM16.25 16C15.921 16 15.6035 15.9548 15.3028 15.8704L15.0328 16.8333C15.4205 16.942 15.8289 17 16.25 17V16Z" fill="black"/>
<circle cx="16.75" cy="12" r="1" stroke="black"/>
<path fill-rule="evenodd" clip-rule="evenodd" d="M7.78001 9.8842L8.24709 9.41712L8.00078 8.80421C7.83934 8.40247 7.75 7.96289 7.75 7.5C7.75 5.567 9.317 4 11.25 4C12.9123 4 14.3039 5.1588 14.6611 6.71265C14.9793 6.62547 15.3082 6.56384 15.6452 6.5301C15.2017 4.51101 13.4023 3 11.25 3C8.76472 3 6.75 5.01472 6.75 7.5C6.75 8.09279 6.86462 8.6588 7.07291 9.17709L3.83579 12.4142C3.46071 12.7893 3.25 13.298 3.25 13.8284V15C3.25 15.5523 3.69772 16 4.25 16H5.42157C5.95201 16 6.46071 15.7893 6.83579 15.4142L10.2724 11.9776C10.304 11.6121 10.3682 11.256 10.4623 10.9122L10.0152 10.8206L9.6346 11.2012L6.12868 14.7071C5.94114 14.8946 5.68679 15 5.42157 15H4.25V13.8284C4.25 13.5632 4.35536 13.3089 4.54289 13.1213L7.78001 9.8842Z" fill="black"/>
<circle cx="11.75" cy="7" r="1" stroke="black"/>
</svg>
