<svg width="24" height="24" viewBox="0 0 24 24" fill="none" xmlns="http://www.w3.org/2000/svg">
<path fill-rule="evenodd" clip-rule="evenodd" d="M20 12C20 12.8526 19.3661 13.8348 17.8783 14.6614C16.4244 15.4691 14.3481 16 12 16C9.65195 16 7.57561 15.4691 6.12168 14.6614C4.63388 13.8348 4 12.8526 4 12C4 11.1474 4.63388 10.1652 6.12168 9.33862C7.57561 8.53089 9.65195 8 12 8C14.3481 8 16.4244 8.53089 17.8783 9.33862C19.3661 10.1652 20 11.1474 20 12ZM21 12C21 14.7614 16.9706 17 12 17C7.02944 17 3 14.7614 3 12C3 9.23858 7.02944 7 12 7C16.9706 7 21 9.23858 21 12ZM12 14C13.1046 14 14 13.1046 14 12C14 10.8954 13.1046 10 12 10C10.8954 10 10 10.8954 10 12C10 13.1046 10.8954 14 12 14Z" fill="black"/>
</svg>
