<svg width="24" height="24" viewBox="0 0 24 24" fill="none" xmlns="http://www.w3.org/2000/svg">
<path d="M20.05 19H17.55V20H20.05V19ZM21.05 18C21.05 18.5523 20.6023 19 20.05 19V20C21.1546 20 22.05 19.1046 22.05 18H21.05ZM21.05 6V18H22.05V6H21.05ZM20.05 5C20.6023 5 21.05 5.44772 21.05 6H22.05C22.05 4.89543 21.1546 4 20.05 4V5ZM17.55 5H20.05V4H17.55V5ZM17.55 5C18.1023 5 18.55 5.44772 18.55 6H19.55C19.55 4.89543 18.6546 4 17.55 4V5ZM18.55 6V18H19.55V6H18.55ZM18.55 18C18.55 18.5523 18.1023 19 17.55 19V20C18.6546 20 19.55 19.1046 19.55 18H18.55Z" fill="black"/>
<rect x="2.44997" y="4.5" width="16.6" height="15" rx="1.5" stroke="black"/>
<circle cx="6.55002" cy="11.8" r="1.3" stroke="black" stroke-width="0.8"/>
</svg>
